<?xml version="1.0" encoding="UTF-8"?> <svg xmlns="http://www.w3.org/2000/svg" width="675" height="153" viewBox="0 0 675 153" fill="none"><g clip-path="url(#clip0_4529_43576)"><path d="M70.1466 65.9707C62.5095 58.7046 62.5908 49.8354 70.2256 43.4922C77.5642 50.0223 77.8064 59.0594 70.1466 65.9707Z" fill="#ED5D4E"></path><path d="M51.666 90.9064V129.254H88.4244V91.021C82.0775 96.246 76.2447 101.048 70.3305 105.917C64.1201 100.922 58.0545 96.0444 51.666 90.9064Z" fill="#ED5D4E"></path><path d="M70.2912 74.3996C50.2453 55.8392 51.0683 34.5772 70.3401 16.9243C90.0443 36.0648 88.938 56.5132 70.2912 74.3996ZM70.1349 -0.00502014C31.4005 -0.00502014 0 31.395 0 70.1304C0 94.9804 12.937 116.797 32.4307 129.254H36.2197V60.4362L70.3265 87.7778L103.982 60.62V129.254H107.839C127.334 116.797 140.271 94.9804 140.271 70.1304C140.271 31.395 108.87 -0.00502014 70.1349 -0.00502014Z" fill="#ED5D4E"></path><path d="M418.776 77.2965C421.089 74.8626 422.247 71.6053 422.247 67.5189C422.247 63.4329 421.089 60.1735 418.776 57.7402C416.463 55.3069 413.504 54.0913 409.9 54.0913C406.295 54.0913 403.321 55.3069 400.977 57.7402C398.635 60.1735 397.463 63.4329 397.463 67.5189C397.463 71.6053 398.635 74.8626 400.977 77.2965C403.321 79.7298 406.295 80.9475 409.9 80.9475C413.504 80.9475 416.463 79.7298 418.776 77.2965ZM632.231 43.4777L631.509 62.9475C631.329 66.8537 631.059 69.9927 630.699 72.3673C630.338 74.7418 629.632 76.6949 628.58 78.2261C627.528 79.7585 625.951 80.5251 623.848 80.5251C623.427 80.5251 622.735 80.4657 621.775 80.3443L621.648 82.3694L623.861 92.4918C625.517 92.7965 627.028 92.9642 628.355 92.9642C632.202 92.9642 635.205 91.7626 637.369 89.359C639.533 86.9563 641.095 83.6506 642.056 79.4423C643.016 75.2381 643.619 69.949 643.859 63.5782L644.311 55.0151H659.633V91.9735H673.696V43.4777H632.231ZM481.585 77.9235C478.671 80.461 474.943 81.7287 470.401 81.7287C466.092 81.7287 461.276 79.3261 459.513 75.9662V60.7366C461.276 57.3027 466.092 53.7203 470.401 53.7203C474.943 53.7203 478.671 54.9891 481.585 57.5266C484.499 60.0646 485.956 63.4642 485.956 67.7241C485.956 71.9875 484.499 75.3855 481.585 77.9235ZM495.761 54.6099C493.657 50.8547 490.759 47.9386 487.061 45.8657C483.367 43.7923 479.265 42.7569 474.759 42.7569C468.088 42.7569 463.008 44.8605 459.524 49.0651V43.4777H446.093V109.459H460.156V86.8355C463.7 90.7418 468.567 92.6949 474.759 92.6949C479.265 92.6949 483.367 91.6569 487.061 89.5829C490.759 87.5105 493.657 84.5959 495.761 80.8413C497.863 77.0861 498.916 72.7131 498.916 67.7241C498.916 62.7375 497.863 58.3657 495.761 54.6099V54.6099ZM596.896 81.5621C598.76 80.449 600.082 78.8126 600.863 76.6485V71.6918H591.219C585.45 71.6918 582.564 73.5834 582.564 77.3699C582.564 79.1719 583.271 80.6001 584.683 81.6517C586.095 82.7042 588.032 83.2293 590.497 83.2293C592.9 83.2293 595.035 82.6746 596.896 81.5621V81.5621ZM608.887 48.1199C612.911 51.6954 614.925 57.0886 614.925 64.2995V80.9459L616.287 91.9735H604.245L601.764 85.9329C599.12 90.4397 594.192 92.6949 586.981 92.6949C583.255 92.6949 580.026 92.0631 577.291 90.8017C574.555 89.5397 572.468 87.797 571.027 85.5735C569.584 83.3501 568.864 80.8266 568.864 78.0022C568.864 73.4933 570.56 69.949 573.955 67.3642C577.35 64.7813 582.595 63.4891 589.686 63.4891H600.863C600.863 60.4235 599.931 58.0657 598.068 56.4131C596.205 54.761 593.411 53.9334 589.686 53.9334C587.102 53.9334 584.561 54.3402 582.068 55.1506C579.575 55.9615 577.456 57.059 575.715 58.4402L570.666 48.6151C573.311 46.7527 576.48 45.311 580.175 44.2886C583.872 43.2667 587.671 42.7569 591.579 42.7569C599.091 42.7569 604.859 44.5443 608.887 48.1199V48.1199ZM508.739 43.4777H522.712V72.3214L546.328 43.4777H559.219V91.9735H545.247V63.1282L521.72 91.9735H508.739V43.4777ZM396.201 89.4943C392.145 87.3621 388.973 84.4011 386.691 80.6146C384.405 76.8298 383.265 72.5339 383.265 67.7241C383.265 62.9183 384.405 58.6209 386.691 54.8355C388.973 51.0495 392.145 48.0902 396.201 45.9563C400.257 43.8235 404.839 42.7569 409.947 42.7569C415.053 42.7569 419.621 43.8235 423.649 45.9563C427.673 48.0902 430.829 51.0495 433.112 54.8355C435.396 58.6209 436.539 62.9183 436.539 67.7241C436.539 72.5339 435.396 76.8298 433.112 80.6146C430.829 84.4011 427.673 87.3621 423.649 89.4943C419.621 91.6271 415.053 92.6949 409.947 92.6949C404.839 92.6949 400.257 91.6271 396.201 89.4943ZM361.092 91.9735V62.9475L343.519 87.2866L326.477 62.8574V91.9735H313.767V43.4777H328.461L343.965 67.9173L360.461 43.4777H373.621L373.801 91.9735H361.092ZM269.78 56.097C267.616 57.8995 266.293 60.3646 265.813 63.4891H289.7C289.219 60.4235 287.897 57.9757 285.735 56.1423C283.572 54.3099 280.925 53.3927 277.803 53.3927C274.616 53.3927 271.943 54.2938 269.78 56.097V56.097ZM302.681 71.6918H265.995C266.655 74.6959 268.216 77.0699 270.681 78.8126C273.144 80.5547 276.209 81.4271 279.876 81.4271C282.399 81.4271 284.637 81.0517 286.591 80.299C288.352 79.623 290.004 78.5902 291.547 77.2022C293.033 78.9642 295.188 81.7813 298.375 86.0714C293.864 90.4866 287.577 92.6949 279.515 92.6949C274.045 92.6949 269.208 91.6271 265.003 89.4943C260.796 87.3621 257.551 84.4011 255.267 80.6146C252.983 76.8298 251.841 72.5339 251.841 67.7241C251.841 62.9787 252.968 58.697 255.221 54.8803C257.475 51.0646 260.569 48.0902 264.507 45.9563C268.441 43.8235 272.844 42.7569 277.712 42.7569C282.459 42.7569 286.756 43.7787 290.603 45.8209C294.447 47.8646 297.468 50.7943 299.661 54.6099C301.855 58.4266 302.952 62.8574 302.952 67.9047C302.952 68.0855 302.861 69.347 302.681 71.6918V71.6918ZM229.668 91.9735V62.9475L212.279 87.2866L195.053 62.8574V91.9735H182.343V43.4777H197.037L212.541 67.9173L229.037 43.4777H242.197L242.377 91.9735H229.668" fill="#29597F"></path><path d="M326.527 102.452H339.038L309.335 150.598H296.824L326.527 102.452" fill="#ED5D4E"></path><path d="M182.308 121.438H495.541V130.168H182.308V121.438Z" fill="#ED5D4E"></path><path d="M556.71 102.716V151.14H542.669V114.237H522.506V151.14H508.556V102.716H556.71Z" fill="#ED5D4E"></path><path d="M609.682 130.078C611.272 131.938 612.068 134.16 612.068 136.74C612.068 139.799 611.017 142.485 608.917 144.796C606.817 147.105 603.936 148.891 600.276 150.15C596.616 151.409 592.476 152.04 587.856 152.04C584.074 152.04 580.353 151.649 576.694 150.871C573.033 150.091 569.642 148.921 566.522 147.36L570.304 137.549C575.402 140.011 581.045 141.24 587.225 141.24C590.525 141.24 593.12 140.744 595.01 139.754C596.901 138.764 597.846 137.369 597.846 135.569C597.846 134.009 597.185 132.824 595.866 132.014C594.546 131.203 592.625 130.798 590.106 130.798H580.205V122.068H588.845C591.305 122.068 593.196 121.678 594.516 120.897C595.834 120.118 596.497 118.978 596.497 117.476C596.497 115.918 595.67 114.717 594.021 113.876C592.37 113.037 590.016 112.617 586.954 112.617C582.276 112.617 577.173 113.728 571.654 115.946L568.233 106.226C574.953 103.286 581.494 101.815 587.856 101.815C592.234 101.815 596.15 102.355 599.602 103.436C603.052 104.516 605.768 106.091 607.748 108.161C609.726 110.232 610.718 112.647 610.718 115.407C610.718 117.688 610.026 119.743 608.648 121.573C607.266 123.404 605.377 124.858 602.977 125.937C605.857 126.838 608.092 128.219 609.682 130.078" fill="#ED5D4E"></path><path d="M645.371 132.778H638.079V151.14H624.039V102.716H638.079V121.527H645.64L658.782 102.716H673.723L656.802 125.937L674.892 151.14H658.332L645.371 132.778Z" fill="#ED5D4E"></path></g><defs><clipPath id="clip0_4529_43576"><rect width="674.893" height="152.04" fill="white"></rect></clipPath></defs></svg> 