<?xml version="1.0" encoding="UTF-8"?> <svg xmlns="http://www.w3.org/2000/svg" version="1.1" viewBox="0 0 467.6 110.5"><defs><style> .cls-1 { fill: #e43d30; } .cls-2 { fill: #185a7d; } </style></defs><g><g id="Layer_1"><g><g><path class="cls-1" d="M52.6,49.5c-5.7-5.4-5.7-12.1,0-16.9,5.5,4.9,5.7,11.7,0,16.9Z"></path><g><path class="cls-1" d="M38.7,68.2v28.8h27.6v-28.7c-4.8,3.9-9.1,7.5-13.6,11.2-4.7-3.7-9.2-7.4-14-11.3Z"></path><path class="cls-1" d="M52.6,0C23.6,0,0,23.6,0,52.6s9.7,35,24.3,44.3h2.8v-51.6l25.6,20.5,25.2-20.4v51.5h2.9c14.6-9.3,24.3-25.7,24.3-44.3C105.2,23.6,81.7,0,52.6,0ZM52.7,55.8c-15-13.9-14.4-29.9,0-43.1,14.8,14.4,13.9,29.7,0,43.1Z"></path></g></g><path class="cls-1" d="M183.5,85.3h5.5l-15.5,25.2h-5.5l15.5-25.2Z"></path><path class="cls-1" d="M136.8,96h83.5v3.8h-83.5v-3.8Z"></path><g><path class="cls-2" d="M194,36.1c2.7,2.7,4,6.7,4,12v20.7h-10.5v-19.1c0-2.9-.6-5-1.8-6.4s-2.9-2.1-5.1-2.1-4.4.8-5.9,2.4c-1.4,1.6-2.2,4-2.2,7.1v18.2h-10.5v-19.1c0-5.7-2.3-8.6-6.9-8.6s-4.4.8-5.8,2.4c-1.4,1.6-2.2,4-2.2,7.1v18.2h-10.5v-36.2h10v4.2c1.3-1.5,3-2.7,5-3.5,2-.8,4.1-1.2,6.4-1.2s4.9.5,6.9,1.5c2.1,1,3.7,2.5,5,4.4,1.5-1.9,3.4-3.3,5.6-4.4,2.3-1,4.7-1.5,7.4-1.5,4.5,0,8.1,1.3,10.8,4Z"></path><path class="cls-2" d="M243.1,53.7h-27.4c.5,2.2,1.7,4,3.5,5.3,1.8,1.3,4.1,2,6.9,2s3.6-.3,5-.8c1.5-.6,2.8-1.4,4.1-2.7l5.6,6.1c-3.4,3.9-8.4,5.9-15,5.9s-7.7-.8-10.8-2.4c-3.1-1.6-5.6-3.8-7.3-6.6-1.7-2.8-2.6-6-2.6-9.6s.8-6.7,2.5-9.6c1.7-2.9,4-5.1,6.9-6.7,2.9-1.6,6.2-2.4,9.9-2.4s6.8.8,9.6,2.3c2.9,1.5,5.1,3.7,6.8,6.6,1.6,2.9,2.5,6.2,2.5,9.9s0,1.1-.2,2.8ZM218.5,42.1c-1.6,1.3-2.6,3.2-3,5.5h17.8c-.4-2.3-1.3-4.1-3-5.5-1.6-1.4-3.6-2.1-5.9-2.1s-4.4.7-6,2Z"></path><path class="cls-2" d="M307.5,36.1c2.7,2.7,4,6.7,4,12v20.7h-10.5v-19.1c0-2.9-.6-5-1.8-6.4s-2.9-2.1-5.1-2.1-4.4.8-5.9,2.4c-1.4,1.6-2.2,4-2.2,7.1v18.2h-10.5v-19.1c0-5.7-2.3-8.6-6.9-8.6s-4.4.8-5.8,2.4c-1.4,1.6-2.2,4-2.2,7.1v18.2h-10.5v-36.2h10v4.2c1.3-1.5,3-2.7,5-3.5,2-.8,4.1-1.2,6.4-1.2s4.9.5,6.9,1.5c2.1,1,3.7,2.5,5,4.4,1.5-1.9,3.4-3.3,5.6-4.4,2.3-1,4.7-1.5,7.4-1.5,4.5,0,8.1,1.3,10.8,4Z"></path><path class="cls-2" d="M328.4,67c-3-1.6-5.4-3.8-7.1-6.6-1.7-2.8-2.6-6-2.6-9.6s.9-6.8,2.6-9.6c1.7-2.8,4.1-5,7.1-6.6,3-1.6,6.5-2.4,10.3-2.4s7.2.8,10.2,2.4c3,1.6,5.4,3.8,7.1,6.6,1.7,2.8,2.6,6,2.6,9.6s-.9,6.8-2.6,9.6c-1.7,2.8-4.1,5-7.1,6.6-3,1.6-6.4,2.4-10.2,2.4s-7.2-.8-10.3-2.4ZM345.3,58.1c1.7-1.8,2.6-4.3,2.6-7.3s-.9-5.5-2.6-7.3c-1.7-1.8-3.9-2.7-6.6-2.7s-4.9.9-6.7,2.7c-1.8,1.8-2.6,4.3-2.6,7.3s.9,5.5,2.6,7.3c1.8,1.8,4,2.7,6.7,2.7s4.9-.9,6.6-2.7Z"></path><path class="cls-2" d="M380.6,33.5c2.1-.9,4.6-1.3,7.4-1.3v9.7c-1.2,0-2-.1-2.4-.1-3,0-5.4.8-7.1,2.5-1.7,1.7-2.6,4.2-2.6,7.6v17.1h-10.5v-36.2h10v4.8c1.3-1.8,3-3.1,5.1-4Z"></path><path class="cls-2" d="M394.8,25.9c-1.2-1.1-1.8-2.5-1.8-4.2s.6-3.1,1.8-4.2c1.2-1.1,2.8-1.7,4.7-1.7s3.5.5,4.7,1.6c1.2,1.1,1.8,2.4,1.8,4s-.6,3.2-1.8,4.3c-1.2,1.1-2.8,1.7-4.7,1.7s-3.5-.6-4.7-1.7ZM394.3,32.7h10.5v36.2h-10.5v-36.2Z"></path><path class="cls-2" d="M442.1,36.1c3,2.7,4.5,6.7,4.5,12.1v20.7h-9.8v-4.5c-2,3.4-5.7,5.1-11,5.1s-5.2-.5-7.2-1.4c-2-.9-3.6-2.2-4.7-3.9-1.1-1.7-1.6-3.5-1.6-5.7,0-3.4,1.3-6,3.8-7.9,2.5-1.9,6.5-2.9,11.8-2.9h8.4c0-2.3-.7-4.1-2.1-5.3-1.4-1.2-3.5-1.9-6.3-1.9s-3.8.3-5.7.9c-1.9.6-3.4,1.4-4.7,2.5l-3.8-7.3c2-1.4,4.3-2.5,7.1-3.2,2.8-.8,5.6-1.1,8.5-1.1,5.6,0,9.9,1.3,12.9,4ZM433.1,61.1c1.4-.8,2.4-2.1,3-3.7v-3.7h-7.2c-4.3,0-6.5,1.4-6.5,4.2s.5,2.4,1.6,3.2c1.1.8,2.5,1.2,4.3,1.2s3.4-.4,4.8-1.2Z"></path><path class="cls-2" d="M456.1,18.9h10.5v50h-10.5V18.9Z"></path></g><g><path class="cls-1" d="M239.9,91.5c1.1.6,2,1.5,2.6,2.6.6,1.1.9,2.4.9,3.9s-.3,2.8-.9,3.9c-.6,1.1-1.5,2-2.6,2.6-1.1.6-2.3.9-3.7.9s-3.3-.6-4.4-1.8v6.8h-4.2v-19.7h4v1.7c1-1.3,2.6-1.9,4.5-1.9s2.6.3,3.7.9ZM238.2,100.9c.7-.7,1-1.7,1-2.9s-.3-2.2-1-2.9c-.7-.7-1.6-1.1-2.7-1.1s-2,.4-2.7,1.1c-.7.7-1,1.7-1,2.9s.3,2.2,1,2.9c.7.7,1.6,1.1,2.7,1.1s2-.4,2.7-1.1Z"></path><path class="cls-1" d="M248.5,104.5c-1.2-.6-2.2-1.5-2.8-2.7-.7-1.1-1-2.4-1-3.8s.3-2.7,1-3.8c.7-1.1,1.6-2,2.8-2.7,1.2-.6,2.6-1,4.1-1s2.9.3,4.1,1c1.2.6,2.1,1.5,2.8,2.7.7,1.1,1,2.4,1,3.8s-.3,2.7-1,3.8c-.7,1.1-1.6,2-2.8,2.7s-2.6,1-4.1,1-2.9-.3-4.1-1ZM255.3,100.9c.7-.7,1-1.7,1-2.9s-.3-2.2-1-2.9c-.7-.7-1.6-1.1-2.7-1.1s-2,.4-2.7,1.1c-.7.7-1,1.7-1,2.9s.3,2.2,1,2.9c.7.7,1.6,1.1,2.7,1.1s2-.4,2.7-1.1Z"></path><path class="cls-1" d="M262.8,85.3h4.2v20h-4.2v-20Z"></path><path class="cls-1" d="M270.6,88.1c-.5-.4-.7-1-.7-1.7s.2-1.2.7-1.7c.5-.4,1.1-.7,1.9-.7s1.4.2,1.9.6c.5.4.7,1,.7,1.6s-.2,1.3-.7,1.7c-.5.5-1.1.7-1.9.7s-1.4-.2-1.9-.7ZM270.4,90.7h4.2v14.5h-4.2v-14.5Z"></path><path class="cls-1" d="M287.3,104.5c-.4.3-.9.5-1.5.7-.6.2-1.2.2-1.9.2-1.7,0-3.1-.4-4-1.3s-1.4-2.2-1.4-3.9v-5.9h-2.2v-3.2h2.2v-3.5h4.2v3.5h3.6v3.2h-3.6v5.9c0,.6.2,1.1.5,1.4.3.3.8.5,1.3.5s1.2-.2,1.7-.5l1.1,3Z"></path><path class="cls-1" d="M289.4,88.1c-.5-.4-.7-1-.7-1.7s.2-1.2.7-1.7c.5-.4,1.1-.7,1.9-.7s1.4.2,1.9.6c.5.4.7,1,.7,1.6s-.2,1.3-.7,1.7c-.5.5-1.1.7-1.9.7s-1.4-.2-1.9-.7ZM289.1,90.7h4.2v14.5h-4.2v-14.5Z"></path><path class="cls-1" d="M299.5,104.5c-1.2-.6-2.2-1.5-2.9-2.7-.7-1.1-1-2.4-1-3.8s.3-2.7,1-3.8c.7-1.1,1.7-2,2.9-2.7,1.2-.6,2.6-1,4.2-1s2.9.3,4,1c1.1.6,2,1.5,2.5,2.7l-3.3,1.8c-.8-1.3-1.8-2-3.3-2s-2,.4-2.7,1.1-1.1,1.7-1.1,2.9.4,2.2,1.1,2.9c.7.7,1.6,1.1,2.7,1.1s2.5-.7,3.3-2l3.3,1.8c-.5,1.1-1.4,2-2.5,2.7-1.1.6-2.5,1-4,1s-2.9-.3-4.2-1Z"></path><path class="cls-1" d="M323.1,92.1c1.2,1.1,1.8,2.7,1.8,4.8v8.3h-3.9v-1.8c-.8,1.3-2.3,2-4.4,2s-2.1-.2-2.9-.6-1.4-.9-1.9-1.6c-.4-.7-.6-1.4-.6-2.3,0-1.3.5-2.4,1.5-3.2,1-.8,2.6-1.2,4.7-1.2h3.3c0-.9-.3-1.6-.8-2.1-.6-.5-1.4-.7-2.5-.7s-1.5.1-2.3.4c-.7.2-1.4.6-1.9,1l-1.5-2.9c.8-.6,1.7-1,2.8-1.3,1.1-.3,2.2-.5,3.4-.5,2.2,0,4,.5,5.2,1.6ZM319.5,102.1c.6-.3,1-.8,1.2-1.5v-1.5h-2.9c-1.7,0-2.6.6-2.6,1.7s.2,1,.6,1.3c.4.3,1,.5,1.7.5s1.4-.2,1.9-.5Z"></path><path class="cls-1" d="M328.1,85.3h4.2v20h-4.2v-20Z"></path><path class="cls-1" d="M355,91.5c1.1.6,2,1.5,2.6,2.6.6,1.1.9,2.4.9,3.9s-.3,2.8-.9,3.9c-.6,1.1-1.5,2-2.6,2.6-1.1.6-2.3.9-3.7.9s-3.3-.6-4.4-1.8v6.8h-4.2v-19.7h4v1.7c1-1.3,2.6-1.9,4.5-1.9s2.6.3,3.7.9ZM353.3,100.9c.7-.7,1-1.7,1-2.9s-.3-2.2-1-2.9c-.7-.7-1.6-1.1-2.7-1.1s-2,.4-2.7,1.1c-.7.7-1,1.7-1,2.9s.3,2.2,1,2.9c.7.7,1.6,1.1,2.7,1.1s2-.4,2.7-1.1Z"></path><path class="cls-1" d="M366.9,91.1c.9-.4,1.8-.5,2.9-.5v3.9c-.5,0-.8,0-.9,0-1.2,0-2.1.3-2.8,1-.7.7-1,1.7-1,3v6.8h-4.2v-14.5h4v1.9c.5-.7,1.2-1.2,2-1.6Z"></path><path class="cls-1" d="M372,88.1c-.5-.4-.7-1-.7-1.7s.2-1.2.7-1.7c.5-.4,1.1-.7,1.9-.7s1.4.2,1.9.6c.5.4.7,1,.7,1.6s-.2,1.3-.7,1.7c-.5.5-1.1.7-1.9.7s-1.4-.2-1.9-.7ZM371.8,90.7h4.2v14.5h-4.2v-14.5Z"></path><path class="cls-1" d="M380.7,105c-1.1-.3-2.1-.7-2.7-1.1l1.4-3c.6.4,1.4.8,2.3,1,.9.3,1.8.4,2.7.4,1.8,0,2.7-.4,2.7-1.3s-.2-.7-.7-.9c-.5-.2-1.2-.3-2.2-.5-1.2-.2-2.2-.4-2.9-.6-.8-.2-1.4-.6-2-1.2-.6-.6-.8-1.4-.8-2.5s.3-1.7.8-2.4,1.3-1.3,2.3-1.7c1-.4,2.2-.6,3.6-.6s2,.1,3.1.3c1,.2,1.9.5,2.5.9l-1.4,3c-1.3-.7-2.7-1.1-4.2-1.1s-1.6.1-2,.4c-.4.3-.7.6-.7,1s.2.8.7.9c.5.2,1.3.3,2.3.5,1.2.2,2.2.4,2.9.6.8.2,1.4.6,2,1.2.6.6.8,1.4.8,2.5s-.3,1.7-.8,2.4c-.5.7-1.3,1.2-2.4,1.6s-2.3.6-3.7.6-2.4-.1-3.5-.4Z"></path><path class="cls-1" d="M395.9,104.5c-1.2-.6-2.2-1.5-2.8-2.7-.7-1.1-1-2.4-1-3.8s.3-2.7,1-3.8c.7-1.1,1.6-2,2.8-2.7,1.2-.6,2.6-1,4.1-1s2.9.3,4.1,1c1.2.6,2.1,1.5,2.8,2.7.7,1.1,1,2.4,1,3.8s-.3,2.7-1,3.8c-.7,1.1-1.6,2-2.8,2.7-1.2.6-2.6,1-4.1,1s-2.9-.3-4.1-1ZM402.6,100.9c.7-.7,1-1.7,1-2.9s-.3-2.2-1-2.9c-.7-.7-1.6-1.1-2.7-1.1s-2,.4-2.7,1.1c-.7.7-1,1.7-1,2.9s.3,2.2,1,2.9c.7.7,1.6,1.1,2.7,1.1s2-.4,2.7-1.1Z"></path><path class="cls-1" d="M423.3,92.1c1.1,1.1,1.7,2.7,1.7,4.8v8.3h-4.2v-7.6c0-1.1-.3-2-.8-2.6-.5-.6-1.2-.8-2.2-.8s-1.9.3-2.5,1c-.6.7-.9,1.6-.9,2.9v7.2h-4.2v-14.5h4v1.7c.6-.6,1.2-1.1,2.1-1.4.8-.3,1.7-.5,2.7-.5,1.8,0,3.2.5,4.3,1.6Z"></path><path class="cls-1" d="M442.5,99.2h-11c.2.9.7,1.6,1.4,2.1.7.5,1.7.8,2.7.8s1.4-.1,2-.3c.6-.2,1.1-.6,1.6-1.1l2.2,2.4c-1.4,1.6-3.4,2.3-6,2.3s-3.1-.3-4.3-1c-1.3-.6-2.2-1.5-2.9-2.7-.7-1.1-1-2.4-1-3.8s.3-2.7,1-3.8c.7-1.1,1.6-2,2.8-2.7,1.2-.6,2.5-1,3.9-1s2.7.3,3.8.9c1.1.6,2,1.5,2.7,2.6s1,2.5,1,4,0,.4,0,1.1ZM432.7,94.5c-.6.5-1,1.3-1.2,2.2h7.1c-.1-.9-.5-1.6-1.2-2.2-.6-.5-1.4-.8-2.4-.8s-1.8.3-2.4.8Z"></path><path class="cls-1" d="M450.9,91.1c.9-.4,1.8-.5,2.9-.5v3.9c-.5,0-.8,0-.9,0-1.2,0-2.1.3-2.8,1-.7.7-1,1.7-1,3v6.8h-4.2v-14.5h4v1.9c.5-.7,1.2-1.2,2-1.6Z"></path><path class="cls-1" d="M457.2,105c-1.1-.3-2.1-.7-2.7-1.1l1.4-3c.6.4,1.4.8,2.3,1,.9.3,1.8.4,2.7.4,1.8,0,2.7-.4,2.7-1.3s-.2-.7-.7-.9c-.5-.2-1.2-.3-2.2-.5-1.2-.2-2.2-.4-2.9-.6-.8-.2-1.4-.6-2-1.2-.6-.6-.8-1.4-.8-2.5s.3-1.7.8-2.4,1.3-1.3,2.3-1.7c1-.4,2.2-.6,3.6-.6s2,.1,3.1.3c1,.2,1.9.5,2.5.9l-1.4,3c-1.3-.7-2.7-1.1-4.2-1.1s-1.6.1-2,.4c-.4.3-.7.6-.7,1s.2.8.7.9c.5.2,1.3.3,2.3.5,1.2.2,2.2.4,2.9.6.8.2,1.4.6,2,1.2.6.6.8,1.4.8,2.5s-.3,1.7-.8,2.4c-.5.7-1.3,1.2-2.4,1.6s-2.3.6-3.7.6-2.4-.1-3.5-.4Z"></path></g></g></g></g></svg> 