<?xml version="1.0" encoding="UTF-8" standalone="no"?> <svg xmlns="http://www.w3.org/2000/svg" width="1000.000000pt" height="1000.000000pt" viewBox="0 0 1000.000000 1000.000000" preserveAspectRatio="xMidYMid meet"> <g transform="translate(0.000000,1000.000000) scale(0.100000,-0.100000)" fill="#000000" stroke="none"> <path d="M0 5000 l0 -5000 1185 0 c997 0 1185 2 1185 14 0 7 -9 66 -20 129 -15 86 -18 127 -11 157 5 22 6 40 3 40 -4 0 10 9 29 19 21 11 46 17 58 14 15 -4 21 -1 21 12 0 11 5 15 16 11 10 -4 13 -2 8 6 -5 8 -2 9 10 5 11 -4 16 -2 14 6 -3 19 13 58 22 52 9 -6 60 51 60 67 0 6 7 5 17 -3 15 -12 16 -12 10 3 -4 13 -2 16 11 12 14 -5 13 -3 -2 10 -18 14 -15 21 7 17 4 -1 10 6 13 14 4 8 12 15 20 15 7 0 11 6 8 14 -3 8 0 17 6 21 6 4 8 15 5 26 -5 13 -2 19 10 19 22 0 48 27 35 35 -7 4 -6 13 1 27 13 24 -1 38 -39 38 -12 0 -25 7 -28 15 -4 8 -12 15 -20 15 -7 0 -21 14 -29 30 -9 17 -20 28 -25 25 -6 -4 -10 -2 -10 3 0 5 -11 14 -25 20 -14 6 -25 17 -25 23 0 6 -20 29 -44 51 -25 21 -48 47 -51 57 -3 10 -16 22 -28 25 -17 5 -19 8 -9 15 10 6 8 10 -10 16 -12 4 -26 7 -30 6 -5 -1 -8 10 -8 23 0 14 -16 41 -39 66 -24 26 -38 50 -36 61 2 11 -2 19 -8 19 -8 0 -12 14 -11 36 2 27 -1 34 -12 30 -8 -3 -14 0 -14 7 0 8 -3 8 -8 2 -9 -13 -62 -16 -62 -3 0 5 -5 6 -10 3 -6 -3 -13 1 -16 9 -3 9 -10 13 -15 10 -5 -3 -9 2 -9 10 0 9 -3 16 -7 16 -5 0 -8 -79 -9 -175 -1 -108 3 -172 9 -168 6 3 6 -3 1 -18 -12 -32 -7 -169 6 -204 9 -23 8 -26 -5 -21 -19 7 -19 5 0 -30 8 -16 12 -37 9 -46 -3 -10 -1 -18 4 -18 6 0 8 -9 5 -20 -3 -11 -9 -20 -14 -20 -5 0 -9 -5 -9 -11 0 -5 5 -7 11 -3 7 4 10 1 7 -7 -3 -8 2 -20 9 -27 10 -10 11 -18 3 -26 -5 -7 -7 -16 -3 -19 3 -4 1 -7 -5 -7 -25 0 -11 -19 18 -25 17 -4 28 -11 24 -16 -3 -5 2 -9 10 -9 9 0 16 -6 17 -12 0 -7 2 -23 5 -34 2 -15 -4 -27 -23 -39 -31 -21 -79 -30 -87 -16 -4 6 -13 8 -21 4 -8 -3 -15 -1 -15 5 0 15 -49 1 -63 -18 -18 -26 -82 -12 -92 20 -7 23 19 88 40 96 18 7 20 45 3 63 -10 11 -10 14 -1 18 10 3 10 10 2 25 -8 15 -8 19 0 14 6 -4 11 -1 11 8 0 8 -5 18 -10 21 -6 4 -8 11 -4 16 3 5 1 16 -6 24 -8 10 -6 16 9 27 12 8 18 18 14 22 -17 17 -26 166 -10 166 8 0 7 4 -3 10 -8 5 -10 10 -5 10 6 0 10 16 10 35 0 19 -3 35 -7 35 -4 0 -3 11 2 25 7 20 6 32 -6 50 -10 16 -12 25 -5 25 6 0 10 3 9 8 0 4 1 14 5 22 11 29 15 60 7 55 -4 -2 -6 23 -5 56 1 58 1 60 -22 54 -15 -3 -23 -1 -23 7 0 10 -2 10 -9 -1 -5 -7 -11 -9 -14 -4 -3 5 -41 6 -84 2 -43 -4 -82 -4 -87 -1 -5 3 -6 0 -2 -6 5 -8 -6 -11 -36 -11 -24 0 -58 -1 -75 -3 -18 -2 -33 0 -33 4 0 5 -10 3 -22 -4 -13 -7 -26 -11 -30 -10 -4 1 -7 -6 -8 -16 0 -9 -2 -46 -4 -82 -2 -36 -6 -74 -9 -85 -2 -11 1 -23 7 -27 8 -5 8 -12 0 -25 -13 -21 -8 -116 6 -121 6 -2 5 -13 -2 -25 -20 -36 -22 -71 -4 -64 12 5 13 2 6 -17 -5 -15 -5 -27 3 -35 8 -8 6 -11 -6 -11 -14 0 -16 -4 -8 -17 6 -12 5 -20 -7 -29 -14 -10 -14 -13 1 -34 12 -18 14 -27 5 -37 -6 -7 -7 -13 -3 -13 4 0 2 -7 -5 -15 -7 -8 -9 -15 -5 -15 4 0 3 -6 -3 -13 -11 -13 -10 -82 1 -94 4 -3 0 -17 -7 -32 -13 -26 -11 -51 4 -51 5 0 21 -5 37 -12 15 -6 33 -10 38 -9 6 1 -1 -7 -15 -18 -20 -16 -22 -22 -12 -34 11 -12 10 -15 -5 -13 -16 1 -19 -10 -24 -84 l-5 -85 -2 78 -2 77 -29 0 c-17 0 -33 4 -36 10 -4 6 -35 8 -76 5 -43 -3 -69 0 -69 6 0 6 -6 7 -12 3 -10 -6 -10 -4 -2 7 6 8 10 24 9 36 -1 14 5 25 17 29 10 3 18 10 18 15 0 6 6 7 13 3 6 -4 9 -3 4 1 -4 5 0 16 9 26 10 11 12 19 4 24 -5 3 -8 10 -5 15 11 18 13 95 2 103 -9 5 -7 10 6 18 14 8 15 14 6 31 -8 15 -8 19 0 14 8 -5 8 0 2 17 -6 14 -7 28 -4 31 4 3 1 6 -5 6 -6 0 -10 9 -9 19 0 11 4 18 8 15 14 -8 16 48 2 62 -8 8 -10 14 -4 14 7 0 10 13 7 32 -2 18 0 57 5 86 8 56 -5 117 -24 105 -6 -4 -7 -1 -2 8 12 18 14 69 4 75 -5 3 -3 16 3 29 8 19 8 28 -2 40 -7 9 -9 15 -3 13 12 -3 13 0 13 31 0 17 -3 18 -31 8 -29 -11 -33 -10 -55 18 -29 37 -30 59 -4 78 16 11 19 21 14 45 -6 31 9 46 19 20 3 -7 6 -3 6 10 1 13 -3 20 -9 17 -5 -3 -10 -2 -10 4 0 17 32 21 140 16 86 -3 108 -1 122 12 15 13 20 13 33 3 13 -11 20 -11 41 0 19 11 35 11 67 3 23 -5 81 -9 130 -8 48 2 87 -1 87 -5 0 -9 33 -8 40 1 3 3 37 3 75 -1 39 -4 65 -8 58 -9 -6 0 6 -19 27 -42 21 -22 41 -40 44 -40 3 1 5 2 4 4 -5 8 25 47 38 47 8 0 12 4 9 10 -3 5 6 12 20 16 15 4 22 11 18 18 -4 6 1 5 10 -3 14 -11 18 -11 23 2 3 8 13 14 22 13 9 -2 32 1 52 5 19 5 42 6 51 3 19 -5 32 -54 18 -70 -8 -9 46 -86 179 -253 42 -53 173 -203 199 -228 21 -20 24 -20 32 -5 5 9 6 32 4 50 -3 18 0 39 7 47 15 18 5 49 -12 39 -7 -5 -9 -2 -5 8 3 9 3 19 0 22 -6 6 -15 54 -16 94 -1 12 -4 22 -8 22 -4 0 -6 13 -5 29 1 17 -1 28 -5 25 -4 -2 -11 17 -14 43 -12 94 -13 95 -45 88 -23 -5 -30 -3 -30 9 0 9 -6 15 -12 14 -7 -2 -12 3 -10 11 1 7 -2 19 -7 25 -7 9 -4 17 10 29 11 10 17 22 14 27 -3 6 -2 10 3 10 5 0 12 9 15 19 3 14 11 18 26 14 12 -3 29 1 39 9 9 8 25 18 35 21 10 4 16 11 13 16 -7 11 22 23 35 15 5 -3 9 0 9 6 0 7 6 8 18 1 10 -5 27 -8 38 -7 21 4 56 -22 48 -35 -3 -5 2 -12 10 -15 9 -3 14 -10 11 -14 -3 -5 -1 -11 5 -15 5 -3 10 -11 10 -16 0 -6 -4 -7 -10 -4 -7 4 -7 -3 0 -20 5 -14 6 -24 1 -21 -5 3 -11 -1 -15 -9 -3 -8 -1 -17 5 -21 7 -4 5 -12 -4 -22 -8 -10 -17 -24 -21 -32 -4 -8 -1 -7 7 3 14 17 15 15 15 -17 0 -24 -5 -36 -14 -36 -8 0 -14 -7 -14 -15 0 -8 7 -15 16 -15 13 0 14 -3 5 -14 -10 -11 -8 -16 6 -24 16 -9 16 -13 3 -37 -13 -25 -13 -28 9 -44 14 -11 21 -23 17 -30 -4 -7 -2 -18 4 -26 7 -8 9 -15 4 -15 -5 0 -2 -5 6 -10 11 -7 11 -10 2 -10 -7 0 -10 -4 -7 -10 3 -5 2 -10 -2 -10 -5 0 -10 -11 -11 -26 -1 -14 -7 -34 -13 -46 -8 -15 -8 -19 0 -13 13 7 10 -25 -4 -58 -4 -9 -5 -31 -3 -47 3 -17 2 -30 -2 -30 -13 0 -50 -79 -44 -94 3 -9 2 -16 -4 -16 -14 0 -46 -52 -45 -72 1 -10 -4 -18 -11 -18 -17 0 -26 -33 -16 -51 5 -8 0 -19 -16 -31 -13 -11 -24 -24 -24 -29 0 -11 -40 -70 -55 -82 -5 -4 -20 -6 -32 -4 -19 4 -63 -30 -63 -48 0 -10 -40 -44 -69 -60 -17 -8 -31 -18 -31 -21 0 -3 6 -2 12 2 7 4 4 -3 -7 -15 -11 -13 -20 -26 -20 -30 0 -3 -5 -5 -12 -3 -7 2 -13 -2 -13 -8 0 -5 -9 -10 -21 -10 -15 0 -19 -5 -15 -16 5 -12 1 -14 -15 -9 -14 5 -28 0 -45 -16 -22 -21 -24 -30 -24 -126 l0 -103 424 0 425 0 4 38 4 37 1 -37 2 -38 583 0 584 0 12 23 12 22 -5 -22 -4 -23 573 0 574 0 4 73 3 72 2 -72 2 -73 2210 0 2210 0 0 5000 0 5000 -5000 0 -5000 0 0 -5000z m3317 4818 c-2 -13 -4 -3 -4 22 0 25 2 35 4 23 2 -13 2 -33 0 -45z m3 -360 c0 -171 -2 -309 -5 -306 -5 4 -6 208 -5 551 0 37 2 67 5 67 3 0 5 -140 5 -312z m-43 190 c-3 -7 -5 -2 -5 12 0 14 2 19 5 13 2 -7 2 -19 0 -25z m2483 -17 c0 -4 -6 -8 -14 -8 -8 0 -12 6 -9 14 5 13 23 9 23 -6z m-14 -47 c-4 -9 -9 -15 -11 -12 -3 3 -3 13 1 22 4 9 9 15 11 12 3 -3 3 -13 -1 -22z m1601 -181 c-3 -10 -5 -4 -5 12 0 17 2 24 5 18 2 -7 2 -21 0 -30z m-4070 -25 c-3 -7 -5 -2 -5 12 0 14 2 19 5 13 2 -7 2 -19 0 -25z m6610 -50 c-3 -7 -5 -2 -5 12 0 14 2 19 5 13 2 -7 2 -19 0 -25z m-2540 -10 c-3 -7 -5 -2 -5 12 0 14 2 19 5 13 2 -7 2 -19 0 -25z m-4070 -30 c-3 -7 -5 -2 -5 12 0 14 2 19 5 13 2 -7 2 -19 0 -25z m5654 -41 c-10 -9 -11 -8 -5 6 3 10 9 15 12 12 3 -3 0 -11 -7 -18z m-1584 -79 c-3 -8 -6 -5 -6 6 -1 11 2 17 5 13 3 -3 4 -12 1 -19z m-4027 -75 c-1 -38 -3 -44 -11 -30 -9 16 -4 77 7 77 2 0 4 -21 4 -47z m-1 -244 c-1 -53 -6 -103 -11 -110 -8 -11 -8 -10 -4 4 4 13 0 20 -11 23 -12 4 -18 16 -19 37 -1 18 1 24 3 14 3 -10 10 -16 16 -14 8 3 12 36 11 108 -2 77 0 95 7 69 5 -19 8 -78 8 -131z m4029 100 c-3 -20 -5 -19 -9 9 -3 20 -2 29 4 23 5 -5 7 -19 5 -32z m1 -126 c-1 -53 -6 -49 -11 10 -2 20 0 37 4 37 4 0 8 -21 7 -47z m-2 -125 c-2 -13 -4 -3 -4 22 0 25 2 35 4 23 2 -13 2 -33 0 -45z m-430 10 c-3 -7 -5 -2 -5 12 0 14 2 19 5 13 2 -7 2 -19 0 -25z m-3597 -24 c0 -13 -4 -24 -10 -24 -5 0 -10 14 -10 31 0 17 4 28 10 24 6 -3 10 -17 10 -31z m4246 6 c0 -12 -4 -16 -9 -11 -5 5 -6 14 -3 20 10 15 12 14 12 -9z m-217 -82 c-1 -54 -2 -59 -10 -33 -8 27 -3 95 7 95 2 0 4 -28 3 -62z m-4034 -267 c1 -170 -1 -301 -6 -301 -10 0 -10 -1 -9 180 0 78 -3 130 -8 122 -5 -7 -7 -32 -5 -55 3 -28 -1 -49 -11 -62 -15 -20 -15 -19 -16 6 0 14 6 31 13 38 10 11 10 13 0 7 -9 -5 -13 -1 -13 11 0 28 26 94 33 86 4 -3 7 10 7 30 0 20 -5 39 -10 42 -7 4 -6 13 1 27 6 11 10 52 9 91 -2 84 -2 92 6 85 3 -4 7 -142 9 -307z m6318 99 c-3 -12 -8 -19 -11 -16 -5 6 5 36 12 36 2 0 2 -9 -1 -20z m-2306 -302 c-3 -8 -6 -5 -6 6 -1 11 2 17 5 13 3 -3 4 -12 1 -19z m-4051 -22 c3 -8 1 -22 -4 -32 -8 -14 -10 -11 -14 15 -5 31 8 43 18 17z m-2837 -67 c-8 -5 -17 0 -24 14 -9 19 -8 23 10 28 14 4 21 0 23 -14 2 -11 -2 -23 -9 -28z m2837 -55 c2 -37 4 -44 14 -44 6 0 10 11 10 25 0 14 3 25 8 25 4 0 7 -162 7 -359 0 -198 -3 -363 -7 -367 -7 -6 -13 427 -10 596 1 25 -1 39 -4 33 -16 -36 -36 3 -39 75 -2 28 2 41 9 39 6 -2 11 -12 12 -23z m4051 -86 c-3 -8 -6 -5 -6 6 -1 11 2 17 5 13 3 -3 4 -12 1 -19z m0 -65 c-3 -10 -5 -4 -5 12 0 17 2 24 5 18 2 -7 2 -21 0 -30z m-4043 -52 c1 -34 -1 -64 -5 -67 -5 -3 -4 -16 1 -30 13 -32 13 -94 1 -94 -5 0 -11 -10 -13 -22 -3 -21 -2 188 1 256 2 50 12 21 15 -43z m4043 -23 c-2 -13 -4 -5 -4 17 -1 22 1 32 4 23 2 -10 2 -28 0 -40z m0 -100 c-2 -13 -4 -5 -4 17 -1 22 1 32 4 23 2 -10 2 -28 0 -40z m-4647 -58 c0 -5 -2 -10 -4 -10 -3 0 -8 5 -11 10 -3 6 -1 10 4 10 6 0 11 -4 11 -10z m4661 -62 l-5 -43 -6 45 c-6 47 -2 70 9 52 4 -6 4 -30 2 -54z m-1 -58 c0 -5 -4 -10 -10 -10 -5 0 -10 5 -10 10 0 6 5 10 10 10 6 0 10 -4 10 -10z m-4070 -20 c0 -5 -5 -10 -11 -10 -5 0 -7 5 -4 10 3 6 8 10 11 10 2 0 4 -4 4 -10z m4070 -35 c0 -19 -4 -35 -8 -35 -4 0 -6 16 -4 35 2 19 6 35 8 35 2 0 4 -16 4 -35z m-4070 -16 c0 -6 -4 -7 -10 -4 -5 3 -10 11 -10 16 0 6 5 7 10 4 6 -3 10 -11 10 -16z m4062 -81 c-6 -6 -7 0 -4 19 5 21 7 23 10 9 2 -10 0 -22 -6 -28z m11 -170 c-2 -88 -5 -163 -8 -166 -7 -8 -6 293 1 312 3 9 7 16 8 16 0 0 0 -73 -1 -162z m-4053 102 c0 -5 -2 -10 -4 -10 -3 0 -8 5 -11 10 -3 6 -1 10 4 10 6 0 11 -4 11 -10z m23 -132 c-1 -68 -3 -195 -3 -283 -1 -88 -5 -167 -10 -175 -7 -11 -10 2 -11 40 -3 75 -3 69 4 123 5 38 4 47 -8 47 -8 0 -15 5 -15 10 0 6 6 10 13 10 9 0 8 3 -2 9 -10 7 -11 12 -1 27 10 17 11 17 6 1 -3 -10 -2 -16 3 -13 4 3 8 26 9 51 0 32 -3 43 -11 38 -8 -5 -8 -2 0 8 15 18 14 127 0 136 -6 3 -8 2 -5 -3 3 -5 -1 -15 -8 -22 -13 -12 -14 -8 -13 25 2 55 10 83 21 83 6 0 8 -14 6 -30 -3 -17 -1 -33 4 -36 4 -3 8 13 8 35 0 23 4 41 8 41 4 0 7 -55 5 -122z m4024 -195 c-3 -10 -5 -4 -5 12 0 17 2 24 5 18 2 -7 2 -21 0 -30z m0 -130 c-2 -21 -4 -4 -4 37 0 41 2 58 4 38 2 -21 2 -55 0 -75z m0 -145 c-2 -18 -4 -6 -4 27 0 33 2 48 4 33 2 -15 2 -42 0 -60z m-4033 -55 c3 -16 2 -46 -3 -68 -7 -38 -8 -37 -12 28 -4 67 5 91 15 40z m4036 -225 c0 -127 -3 -229 -6 -226 -3 4 -5 107 -5 230 0 256 0 228 6 228 3 0 5 -104 5 -232z m-4041 -8 c-5 -10 -8 10 -7 55 l0 70 8 -55 c5 -30 4 -61 -1 -70z m5058 78 c-3 -8 -6 -5 -6 6 -1 11 2 17 5 13 3 -3 4 -12 1 -19z m-5058 -176 c-2 -42 0 -83 4 -89 4 -7 5 -22 2 -35 -3 -13 -7 -36 -8 -53 -1 -16 -7 -28 -12 -27 -6 2 -9 9 -7 15 2 7 4 32 4 57 -1 69 10 210 15 210 3 0 3 -35 2 -78z m4045 -238 c1 -36 -2 -68 -6 -70 -4 -3 -7 29 -6 71 1 92 11 91 12 -1z m-4044 -20 c0 -8 -5 -12 -10 -9 -6 4 -8 11 -5 16 9 14 15 11 15 -7z m-23 -56 c-3 -8 -6 -5 -6 6 -1 11 2 17 5 13 3 -3 4 -12 1 -19z m4069 -71 c3 -25 1 -47 -3 -50 -5 -3 -9 19 -10 50 -2 65 6 65 13 0z m-4055 10 c-16 -16 -25 -1 -10 16 8 8 16 11 18 5 2 -5 -2 -15 -8 -21z m-3 -102 c-3 -3 -9 2 -12 12 -6 14 -5 15 5 6 7 -7 10 -15 7 -18z m4052 -17 c0 -36 -4 -35 -14 5 -4 16 -2 27 4 27 5 0 10 -14 10 -32z m-4053 -50 c-3 -8 -6 -5 -6 6 -1 11 2 17 5 13 3 -3 4 -12 1 -19z m4061 -59 c2 -19 -2 -28 -8 -24 -12 7 -14 55 -2 55 4 0 9 -14 10 -31z m-4054 -44 c-4 -8 -8 -15 -10 -15 -2 0 -4 7 -4 15 0 8 4 15 10 15 5 0 7 -7 4 -15z m4046 -45 c0 -5 -5 -10 -11 -10 -5 0 -7 5 -4 10 3 6 8 10 11 10 2 0 4 -4 4 -10z m-4044 -54 c-2 -6 -5 -3 -5 7 -1 10 -5 16 -10 13 -5 -4 -7 4 -3 16 l5 22 9 -24 c5 -13 7 -28 4 -34z m4031 -68 c-3 -8 -6 -5 -6 6 -1 11 2 17 5 13 3 -3 4 -12 1 -19z m-4070 -85 c-3 -10 -5 -4 -5 12 0 17 2 24 5 18 2 -7 2 -21 0 -30z m0 -75 c-3 -7 -5 -2 -5 12 0 14 2 19 5 13 2 -7 2 -19 0 -25z m4090 -290 c-3 -8 -6 -5 -6 6 -1 11 2 17 5 13 3 -3 4 -12 1 -19z m-20 -50 c-3 -8 -6 -5 -6 6 -1 11 2 17 5 13 3 -3 4 -12 1 -19z m-4037 -90 c0 -19 -16 -5 -17 14 -2 18 0 20 7 8 5 -8 10 -18 10 -22z m4037 -55 c-3 -10 -5 -2 -5 17 0 19 2 27 5 18 2 -10 2 -26 0 -35z m-4030 -485 c-3 -7 -5 -2 -5 12 0 14 2 19 5 13 2 -7 2 -19 0 -25z m4030 -20 c-3 -8 -6 -5 -6 6 -1 11 2 17 5 13 3 -3 4 -12 1 -19z m-1302 -72 c21 -14 31 -26 22 -26 -8 0 -18 -7 -21 -16 -4 -9 -13 -14 -21 -10 -8 3 -15 1 -15 -5 0 -6 -7 -8 -16 -5 -11 4 -15 2 -11 -8 4 -10 1 -13 -9 -9 -19 7 -18 -6 4 -30 10 -13 11 -17 3 -12 -11 6 -13 4 -8 -8 3 -10 2 -17 -3 -17 -6 0 -10 7 -10 16 0 8 -4 13 -10 9 -5 -3 -6 -13 -3 -21 5 -14 3 -15 -15 -5 -15 8 -22 8 -22 1 0 -5 -5 -10 -11 -10 -6 0 -9 9 -6 20 3 13 0 20 -9 20 -8 0 -14 7 -14 16 0 12 -8 14 -47 9 -27 -4 -55 -9 -63 -12 -8 -4 -19 -7 -25 -7 -13 -1 -19 -33 -9 -54 8 -19 12 -102 5 -116 -9 -20 -9 -246 0 -252 6 -4 6 -11 -2 -20 -9 -11 -8 -14 7 -15 17 0 16 -1 -3 -9 -20 -8 -21 -12 -10 -46 9 -30 9 -38 -1 -42 -9 -3 -6 -10 9 -22 20 -18 19 -47 -2 -35 -5 4 -9 -9 -9 -28 0 -38 20 -62 47 -55 10 2 25 -3 33 -12 18 -20 25 -44 10 -35 -5 3 -10 0 -10 -7 0 -29 -85 -70 -105 -50 -11 11 -69 11 -83 0 -7 -6 -15 -8 -19 -5 -3 4 -14 2 -24 -3 -14 -8 -17 -19 -13 -55 2 -25 1 -45 -4 -45 -5 0 -9 21 -11 47 -1 26 -5 50 -9 53 -12 9 -10 40 2 40 6 1 0 7 -14 15 -14 8 -19 14 -11 15 8 0 11 6 7 16 -3 8 -2 12 4 9 6 -3 10 0 10 8 0 8 9 17 21 20 12 3 18 10 15 15 -4 6 3 8 16 5 13 -3 19 -1 13 4 -5 4 -11 33 -12 63 -4 123 -8 155 -18 162 -6 5 -6 8 2 8 13 0 12 187 -2 209 -5 10 -4 12 3 7 9 -5 10 3 6 31 -3 21 -8 42 -11 47 -3 5 -7 30 -7 56 -2 48 -20 85 -37 74 -5 -3 -6 -10 -3 -16 4 -7 2 -8 -4 -4 -8 4 -16 -3 -22 -19 -6 -15 -19 -29 -30 -32 -11 -3 -20 -10 -20 -17 0 -6 -5 -4 -10 4 -5 8 -10 12 -10 7 0 -4 -13 -1 -29 7 -16 9 -31 12 -35 9 -3 -4 -6 -1 -6 5 0 7 5 12 12 12 6 0 4 8 -7 20 -16 18 -16 20 -1 35 9 9 16 23 16 31 0 8 4 13 8 10 5 -3 20 2 33 12 13 9 28 18 34 19 9 2 67 15 135 29 60 12 110 16 183 16 42 0 77 3 77 7 0 4 37 6 83 5 71 -2 89 -6 122 -28z m-792 10 c18 -3 34 -5 37 -5 3 1 17 -8 31 -21 25 -23 25 -24 7 -42 -10 -10 -29 -18 -43 -18 -14 0 -25 -5 -25 -11 0 -5 -8 -9 -17 -7 -10 1 -24 -1 -32 -6 -10 -6 -12 -5 -7 2 4 7 2 12 -3 12 -6 0 -11 -4 -11 -10 0 -5 -5 -10 -11 -10 -5 0 -7 5 -4 10 3 6 -3 10 -15 10 -12 0 -19 -4 -16 -9 3 -5 -1 -11 -9 -15 -8 -3 -15 0 -16 7 0 9 -2 9 -6 0 -2 -7 -11 -13 -19 -13 -8 0 -14 -5 -14 -11 0 -6 -5 -7 -12 -2 -14 8 -61 13 -53 5 3 -3 -5 -10 -18 -16 -17 -9 -22 -20 -22 -46 1 -19 -4 -38 -9 -42 -7 -5 -7 -11 2 -20 8 -8 12 -8 12 -1 0 14 52 12 62 -2 5 -6 8 -5 8 3 0 6 7 12 16 12 8 0 12 5 9 10 -3 6 2 11 12 11 17 1 17 2 1 6 -10 2 -18 8 -18 13 0 4 13 3 29 -3 17 -6 28 -14 25 -18 -9 -15 31 -3 50 15 15 15 21 16 24 7 3 -10 6 -11 12 -1 7 12 21 2 55 -42 25 -30 26 -37 5 -33 -11 2 -20 0 -20 -5 0 -5 -11 -12 -25 -16 -13 -3 -23 -11 -22 -16 1 -6 -8 -12 -21 -14 -17 -3 -21 0 -16 8 9 14 -26 -10 -38 -27 -5 -6 -8 -6 -8 1 0 6 -7 11 -15 11 -8 0 -15 -7 -15 -15 0 -8 -10 -23 -22 -33 -25 -22 -32 -24 -22 -6 6 9 4 9 -7 1 -8 -6 -27 -14 -42 -18 -15 -4 -27 -12 -26 -19 3 -16 -12 -48 -20 -43 -8 5 -4 -80 4 -94 3 -5 1 -10 -5 -10 -7 0 -10 -7 -7 -15 4 -8 2 -17 -3 -20 -6 -4 -10 -13 -10 -21 0 -8 5 -12 10 -9 15 9 12 -2 -6 -30 -10 -15 -12 -25 -5 -25 6 0 11 -6 11 -14 0 -8 7 -17 16 -20 9 -3 12 -2 8 5 -3 6 2 5 13 -2 22 -13 78 -4 68 11 -3 5 3 9 12 9 10 0 31 1 48 4 28 4 30 7 33 53 2 33 9 54 23 66 10 9 19 22 19 28 0 9 3 10 13 1 10 -8 17 -7 25 1 14 14 62 -15 62 -37 0 -8 4 -15 10 -15 5 0 7 -7 4 -15 -4 -9 0 -15 9 -15 25 0 20 -80 -6 -109 -12 -13 -15 -21 -7 -17 8 4 5 -1 -8 -12 -19 -18 -34 -20 -112 -18 -62 2 -90 -1 -90 -8 0 -7 -17 -12 -37 -13 -21 -1 -66 -4 -101 -7 -35 -3 -61 -2 -58 2 3 5 -8 6 -25 4 -17 -3 -29 0 -29 7 0 6 -8 12 -17 12 -17 1 -17 2 -1 6 16 4 16 6 3 19 -18 19 -20 54 -2 54 8 0 9 3 1 8 -6 4 -12 29 -13 56 -1 27 -3 52 -6 54 -2 2 2 10 9 17 16 17 20 101 5 111 -9 5 -10 2 -6 -9 5 -13 1 -17 -19 -17 -21 0 -24 -4 -20 -25 3 -13 7 -29 11 -35 3 -5 3 -10 -2 -10 -7 0 -10 -61 -3 -85 1 -5 2 -14 1 -18 -1 -5 3 -6 9 -2 5 3 10 1 10 -4 0 -6 -4 -11 -9 -11 -15 0 -23 -51 -10 -66 9 -11 8 -14 -4 -14 -10 0 -14 -9 -13 -25 0 -14 4 -25 7 -25 3 0 6 -7 6 -15 0 -8 -6 -15 -13 -15 -7 0 -18 -8 -23 -17 -6 -10 -11 -13 -11 -6 0 7 -7 10 -15 7 -11 -5 -13 -10 -5 -19 8 -9 8 -15 0 -20 -5 -3 -10 -1 -10 6 0 7 -16 27 -36 45 -27 24 -35 38 -31 53 3 12 0 21 -6 21 -8 0 -8 3 1 8 10 7 10 15 2 36 -6 16 -6 34 -2 43 5 8 6 33 2 54 -4 22 -3 42 1 45 15 9 10 34 -7 41 -9 3 -20 0 -25 -8 -7 -12 -9 -12 -9 0 0 11 -3 11 -15 1 -8 -6 -19 -9 -25 -5 -5 3 -10 2 -10 -4 0 -6 -11 -13 -23 -17 -19 -4 -24 -13 -26 -42 -1 -20 -4 -64 -7 -97 -3 -33 -5 -77 -6 -98 -1 -27 -5 -36 -15 -33 -8 3 -16 -1 -19 -9 -5 -11 -10 -12 -27 -4 -17 10 -19 9 -13 -7 6 -18 5 -18 -8 -1 -7 9 -18 17 -25 17 -6 0 -10 3 -9 8 0 4 -1 14 -4 22 -13 36 -24 120 -17 132 4 7 1 22 -7 33 -13 17 -16 18 -24 5 -5 -8 -10 -11 -10 -7 0 5 -15 0 -32 -11 -18 -10 -46 -18 -63 -17 -16 1 -40 -5 -52 -13 -21 -13 -23 -13 -23 2 0 9 -9 21 -20 28 -29 18 -26 48 5 48 14 0 25 4 25 10 0 14 70 84 76 77 4 -3 18 5 32 18 19 18 30 22 43 14 14 -7 22 -4 34 15 9 13 15 28 14 32 -1 5 0 14 1 19 1 6 2 58 3 117 2 98 -1 113 -19 106 -10 -5 -27 34 -31 69 -5 51 15 65 83 59 32 -3 61 -11 65 -18 5 -7 9 -9 9 -4 0 5 7 3 15 -4 8 -7 14 -18 13 -24 -1 -6 4 -31 11 -55 9 -32 10 -51 2 -67 -6 -14 -7 -26 -1 -29 5 -3 6 -15 1 -28 -5 -12 -6 -36 -4 -54 4 -26 10 -32 35 -35 33 -5 77 12 99 38 11 13 18 62 20 139 1 21 -8 61 -15 73 -5 8 -2 10 9 6 11 -5 15 0 13 16 -2 17 4 25 25 32 31 11 81 2 72 -12 -3 -6 1 -10 9 -10 16 0 21 -21 17 -74 -2 -21 1 -26 11 -20 11 6 11 5 0 -8 -7 -9 -9 -19 -4 -22 5 -3 8 -17 6 -31 -4 -37 21 -42 50 -10 21 23 23 30 14 56 -7 21 -7 33 1 43 13 15 12 65 -2 84 -7 9 -5 11 8 5 15 -5 17 -3 12 11 -4 10 -7 20 -7 22 0 3 -6 2 -12 -2 -9 -6 -9 -3 0 9 8 9 22 19 33 22 11 4 17 10 15 14 -7 11 24 10 66 -1 20 -6 45 -7 55 -3 27 12 46 16 66 16 9 0 15 4 12 9 -3 6 0 7 8 4 8 -3 17 -2 20 3 6 9 91 8 140 -1z m-1976 -68 c-3 -8 -6 -5 -6 6 -1 11 2 17 5 13 3 -3 4 -12 1 -19z m40 -20 c-3 -8 -6 -5 -6 6 -1 11 2 17 5 13 3 -3 4 -12 1 -19z m0 -140 c-2 -18 -4 -6 -4 27 0 33 2 48 4 33 2 -15 2 -42 0 -60z m4030 -60 c-3 -8 -6 -5 -6 6 -1 11 2 17 5 13 3 -3 4 -12 1 -19z m-4025 -52 c-5 -20 -5 -20 -12 -1 -4 11 -5 29 -2 39 5 20 5 20 12 1 4 -11 5 -29 2 -39z m4208 -86 l-11 -25 6 25 c2 14 5 34 6 45 2 19 2 19 6 0 2 -12 -1 -32 -7 -45z m-4211 13 c0 -25 -1 -25 -8 -8 -5 11 -7 23 -4 28 8 14 13 7 12 -20z m-42 -25 c-3 -8 -6 -5 -6 6 -1 11 2 17 5 13 3 -3 4 -12 1 -19z m4323 -103 c0 -8 -4 -15 -10 -15 -5 0 -7 7 -4 15 4 8 8 15 10 15 2 0 4 -7 4 -15z m-4280 -34 c0 -17 -4 -33 -10 -36 -6 -4 -10 8 -10 29 0 20 5 36 10 36 6 0 10 -13 10 -29z m-3 -113 c-3 -7 -5 -2 -5 12 0 14 2 19 5 13 2 -7 2 -19 0 -25z m0 -95 c-3 -10 -5 -2 -5 17 0 19 2 27 5 18 2 -10 2 -26 0 -35z m2 -60 c0 -35 -1 -36 -10 -14 -5 14 -7 31 -5 38 10 24 16 13 15 -24z m-1 -112 c0 -38 3 -74 7 -80 6 -11 36 -11 45 0 3 3 28 -5 55 -17 28 -13 46 -24 40 -24 -5 0 1 -7 13 -16 12 -8 20 -20 17 -25 -4 -5 2 -9 11 -9 15 0 16 -2 2 -17 -15 -19 -13 -53 3 -53 5 0 9 -9 9 -20 0 -10 12 -31 27 -45 15 -14 24 -25 20 -25 -5 0 3 -14 17 -31 24 -28 30 -42 27 -61 0 -5 7 -8 18 -8 21 0 45 -25 37 -38 -3 -6 1 -15 9 -22 8 -7 12 -16 9 -21 -3 -5 0 -9 5 -9 16 0 51 -33 51 -47 0 -13 12 -17 38 -14 6 1 12 -3 12 -9 0 -17 56 -70 73 -70 10 0 14 -5 11 -15 -4 -9 0 -15 9 -15 9 0 18 -8 22 -18 8 -26 49 -44 65 -29 10 9 11 9 6 0 -9 -16 15 -22 41 -10 l23 10 -21 15 c-19 13 -20 16 -5 24 19 10 22 48 4 48 -9 0 -9 3 0 12 8 8 9 15 1 25 -9 10 -8 13 5 13 17 0 22 15 7 24 -4 3 -6 18 -3 32 3 19 1 25 -6 20 -8 -5 -10 -1 -6 9 4 8 1 21 -5 29 -7 8 -10 20 -9 27 2 8 -3 13 -9 12 -7 -2 -13 4 -13 12 0 8 4 15 9 15 15 0 19 49 5 61 -7 6 -11 16 -8 24 3 7 -7 22 -22 34 -15 11 -23 21 -19 21 5 0 -2 8 -13 19 -12 10 -19 21 -15 25 3 3 1 6 -5 6 -7 0 -12 9 -12 19 0 11 -5 23 -10 26 -8 5 -7 12 2 23 11 13 11 14 -1 7 -9 -5 -12 -4 -8 2 4 6 20 16 37 21 26 9 30 8 31 -6 0 -14 2 -13 9 3 5 11 9 15 9 9 1 -5 19 -11 42 -13 30 -1 39 1 33 10 -4 8 -3 9 5 5 6 -4 17 -3 24 2 16 13 65 17 99 8 24 -7 27 -12 25 -49 -2 -39 -26 -77 -48 -77 -4 0 -5 -10 -2 -22 3 -13 6 -34 8 -48 1 -14 4 -27 5 -30 2 -3 4 -23 4 -45 1 -27 6 -39 15 -37 8 1 10 -2 5 -10 -4 -7 -8 -40 -7 -75 0 -35 -4 -63 -9 -63 -4 0 -8 -8 -8 -17 0 -14 2 -15 9 -5 5 8 7 -5 6 -32 0 -25 -4 -49 -8 -52 -4 -4 -2 -13 5 -21 8 -10 8 -12 -4 -8 -9 4 -18 -1 -22 -11 -5 -12 -2 -15 11 -10 16 5 16 4 -1 -8 -13 -11 -17 -23 -13 -43 3 -15 1 -36 -5 -47 -7 -13 -6 -21 3 -27 11 -8 11 -12 -3 -23 -10 -7 -15 -16 -11 -19 3 -4 1 -7 -5 -7 -7 0 -12 -4 -12 -10 0 -5 -10 -21 -22 -35 -12 -14 -24 -38 -25 -53 -5 -40 -24 -83 -34 -76 -5 3 -9 -2 -9 -11 0 -9 5 -13 11 -9 24 15 -11 -34 -51 -70 -22 -20 -38 -41 -35 -46 11 -18 -5 -32 -21 -19 -8 6 -17 9 -21 5 -3 -3 -2 -6 4 -6 8 0 8 -8 0 -25 -7 -14 -19 -25 -29 -25 -11 0 -15 -7 -13 -25 1 -14 -1 -25 -4 -25 -4 0 -27 -19 -51 -42 -25 -23 -38 -38 -30 -33 13 8 13 7 1 -9 -8 -9 -20 -15 -28 -12 -7 3 -13 1 -13 -4 0 -6 -5 -10 -12 -10 -24 0 -107 -46 -117 -65 -9 -15 -10 -15 -7 -2 3 9 1 17 -4 17 -6 0 -10 -7 -10 -16 0 -8 -4 -13 -10 -9 -5 3 -18 -3 -29 -14 -12 -12 -21 -15 -23 -9 -3 7 -12 9 -21 5 -12 -4 -17 -17 -16 -39 1 -31 1 -32 9 -8 7 21 8 21 9 5 0 -11 -2 -31 -6 -44 -6 -23 -7 -23 -14 -5 -4 10 -8 32 -8 47 -1 16 -6 38 -13 50 -18 32 -20 44 -22 130 -2 42 1 77 6 77 5 0 7 4 4 8 -3 5 4 19 15 30 16 18 17 22 4 22 -14 0 -14 3 1 25 15 23 15 25 0 19 -9 -3 -16 -2 -16 4 0 5 15 9 33 9 18 -1 40 2 50 6 11 4 17 2 17 -7 0 -7 8 -20 18 -30 14 -12 18 -29 17 -69 -2 -45 1 -56 18 -67 16 -10 22 -10 25 -1 6 19 53 66 63 64 5 -2 9 2 9 8 0 6 6 9 13 6 8 -3 14 3 14 14 1 10 -3 19 -9 19 -6 0 1 12 15 26 15 15 24 30 21 35 -3 5 -2 8 3 7 4 -2 9 2 11 7 2 6 14 24 27 41 13 17 21 34 18 38 -4 3 1 6 11 6 9 0 14 5 11 11 -4 5 3 19 16 30 15 13 18 19 8 20 -10 0 -11 2 -1 6 6 2 12 10 12 18 0 7 16 23 35 36 34 24 42 42 27 66 -4 6 -14 13 -21 15 -8 2 -22 10 -31 18 -55 50 -80 69 -99 75 -11 3 -21 13 -21 21 0 8 -9 14 -21 14 -11 0 -17 5 -14 10 3 6 -1 10 -9 10 -9 0 -16 5 -16 10 0 6 -12 24 -27 40 -16 16 -32 34 -38 40 -25 26 -67 60 -76 60 -6 0 -7 5 -4 10 3 6 2 10 -4 10 -5 0 -12 8 -15 18 -4 11 -17 24 -29 31 -13 7 -24 22 -24 33 -1 12 -8 25 -15 29 -10 7 -10 9 2 9 9 0 1 12 -20 30 -19 16 -31 30 -26 30 5 0 -4 12 -20 27 -16 15 -28 35 -26 45 2 10 -2 18 -7 18 -6 0 -10 3 -10 8 3 17 -2 30 -22 53 -17 19 -22 21 -29 9 -5 -8 -7 -23 -4 -34 4 -13 2 -16 -6 -11 -9 5 -10 2 -3 -11 7 -16 9 -114 3 -149 -7 -39 -3 -146 5 -148 6 -2 6 -9 -1 -18 -7 -8 -12 -42 -13 -76 0 -34 -1 -65 -2 -70 -5 -28 2 -73 11 -68 6 3 10 1 10 -4 0 -6 -4 -11 -9 -11 -6 0 -10 -26 -10 -57 1 -32 -1 -135 -3 -230 -3 -95 -2 -170 1 -168 4 2 5 -13 3 -33 -3 -33 1 -39 29 -53 39 -18 45 -31 24 -53 -9 -9 -14 -16 -10 -16 3 0 1 -9 -5 -20 -6 -11 -20 -20 -30 -20 -11 0 -20 -4 -20 -9 0 -5 -7 -12 -16 -15 -8 -3 -13 -2 -10 2 2 4 -2 16 -9 26 -14 19 -45 19 -115 1 -50 -13 -96 -4 -84 17 4 6 2 8 -3 5 -6 -4 -18 2 -28 13 -12 14 -14 20 -5 20 10 0 10 3 1 14 -10 11 -8 16 8 21 12 3 21 11 21 16 0 6 4 8 8 5 9 -6 37 10 37 21 2 26 18 52 28 47 7 -4 9 -4 5 1 -4 4 -3 16 3 26 7 14 6 19 -2 19 -8 0 -8 4 1 15 6 8 8 20 4 26 -4 8 -3 9 4 5 7 -4 12 -3 12 3 0 5 -5 11 -10 13 -15 5 -20 108 -6 109 6 0 6 3 -2 6 -10 4 -10 8 -1 19 9 11 9 14 0 14 -7 0 -9 5 -6 10 3 6 2 10 -3 10 -6 0 -12 7 -15 14 -4 10 -1 13 9 9 9 -3 14 2 14 16 0 12 -5 21 -10 21 -6 0 -8 10 -5 23 11 48 13 77 7 77 -4 0 -7 58 -7 129 0 71 3 127 8 124 4 -2 7 7 7 21 0 14 -5 26 -12 26 -6 0 -4 7 5 18 16 17 20 72 6 72 -3 0 -6 7 -6 15 0 8 4 15 9 15 5 0 7 4 4 9 -3 4 -2 22 3 38 11 38 4 47 -34 50 -25 2 -27 1 -10 -7 14 -6 16 -9 5 -9 -9 -1 -20 3 -25 8 -18 16 -63 22 -68 8 -4 -9 -8 -8 -16 3 -10 13 -11 13 -11 0 0 -9 -3 -11 -8 -5 -8 11 -41 13 -57 3 -6 -3 -34 -5 -63 -3 -33 2 -52 -1 -52 -9 0 -6 -4 -5 -9 3 -6 9 -11 10 -15 2 -5 -8 -13 -8 -26 -1 -25 13 -30 13 -24 -4 3 -8 0 -17 -6 -21 -9 -6 -9 -10 1 -16 11 -7 11 -9 -1 -9 -13 0 -13 -1 0 -10 8 -5 10 -10 5 -10 -10 0 -11 -77 -1 -87 3 -3 1 -14 -5 -24 -5 -11 -6 -19 -1 -19 12 0 9 -43 -3 -52 -6 -5 -6 -8 2 -8 8 0 9 -9 3 -30 -5 -17 -5 -30 0 -30 5 0 5 -13 0 -30 -5 -17 -5 -32 0 -35 10 -6 8 -41 -4 -67 -5 -10 -6 -24 -3 -32 3 -8 3 -17 -1 -21 -4 -4 -7 -47 -8 -96 0 -49 -4 -92 -7 -96 -4 -3 0 -17 8 -30 11 -16 13 -29 7 -40 -15 -26 -2 -55 20 -49 11 2 17 2 14 -1 -3 -3 2 -12 10 -20 8 -9 13 -21 10 -29 -3 -7 -1 -14 4 -16 18 -6 -1 -44 -23 -45 -12 -1 -23 -7 -25 -13 -2 -5 -8 -10 -13 -10 -6 0 -8 3 -5 8 2 4 -13 6 -35 4 -24 -3 -46 1 -56 9 -12 10 -15 10 -9 2 4 -7 3 -13 -3 -13 -5 0 -12 6 -14 13 -4 8 -8 9 -14 1 -4 -6 -18 -10 -30 -9 -15 1 -23 -4 -24 -14 0 -11 -2 -12 -6 -3 -2 6 -8 10 -11 8 -4 -2 -17 10 -30 25 -19 23 -20 29 -8 29 9 0 13 6 10 13 -4 13 31 53 45 51 26 -5 56 26 38 39 -9 7 -9 10 0 13 8 4 9 13 4 27 -4 12 -6 36 -4 52 8 92 3 171 -12 195 -3 6 -3 10 2 10 4 0 7 20 6 45 -1 26 3 45 9 45 6 0 5 6 -3 16 -7 9 -9 18 -3 22 12 9 13 92 1 92 -5 0 -6 7 -3 16 3 8 2 12 -4 9 -16 -10 -12 7 7 27 12 13 15 33 13 75 -3 65 -2 81 3 140 4 36 1 44 -24 62 -21 16 -29 30 -29 52 0 26 3 30 20 26 10 -3 20 -1 22 3 5 14 106 22 113 10 4 -7 11 -8 18 -2 7 5 20 8 30 6 9 -2 25 -6 35 -8 9 -2 21 -1 26 2 13 7 70 7 82 -1 6 -3 16 -2 24 4 22 13 53 11 44 -3 -4 -7 -3 -8 4 -4 7 4 18 4 25 -1 18 -11 37 -12 37 -2 0 5 16 8 35 6 19 -1 35 -6 35 -10 0 -5 5 -5 10 -2 6 3 10 2 10 -3 0 -5 10 -8 23 -7 12 1 26 0 31 -3 21 -12 92 -7 106 7 13 13 16 11 21 -15 4 -16 8 -22 9 -14 8 47 7 67 -4 85 -7 11 -12 31 -10 45 1 14 3 34 4 45 2 17 3 16 10 -5 7 -21 8 -19 11 20 2 25 2 60 1 78 -1 22 2 31 10 26 7 -5 9 -2 5 8 -5 14 0 28 9 28 2 0 3 -31 2 -69z m4029 -23 c-3 -8 -6 -5 -6 6 -1 11 2 17 5 13 3 -3 4 -12 1 -19z m-2222 -83 c19 0 40 -10 58 -27 28 -29 35 -48 16 -48 -5 0 -8 -4 -5 -9 9 -14 -4 -41 -19 -41 -20 0 -23 -19 -20 -103 2 -49 -2 -80 -9 -85 -11 -7 -14 -23 -20 -92 -2 -19 -6 -43 -11 -52 -5 -12 -2 -20 10 -24 9 -4 14 -13 11 -20 -3 -8 1 -14 11 -14 13 0 11 -4 -7 -20 -15 -13 -18 -20 -9 -20 11 0 11 -2 1 -9 -7 -4 -12 -23 -11 -42 1 -19 0 -41 -2 -49 -2 -8 1 -14 7 -13 7 1 10 -11 9 -30 -1 -18 2 -40 7 -49 5 -10 5 -18 0 -18 -4 0 -9 -14 -10 -31 -2 -26 1 -30 14 -25 14 5 15 4 4 -9 -7 -8 -9 -15 -4 -16 5 0 16 -2 24 -4 11 -2 17 6 18 23 1 14 11 31 22 39 11 8 20 21 20 30 0 9 6 13 15 9 13 -5 17 3 14 30 0 3 11 14 24 24 13 10 32 37 42 59 10 22 22 38 26 35 5 -3 9 2 9 11 0 9 9 19 21 22 11 3 18 11 15 18 -2 7 4 19 15 28 10 9 19 15 19 12 0 -3 14 7 30 22 17 15 29 32 26 38 -4 11 51 42 67 37 4 -1 6 1 6 5 -4 23 3 35 16 29 8 -3 15 -1 15 4 0 6 -4 10 -10 10 -5 0 -10 5 -10 11 0 5 4 8 9 5 15 -10 20 48 7 75 -8 15 -10 33 -6 40 11 17 1 39 -19 39 -11 1 -4 12 22 35 23 20 46 32 58 30 11 -2 17 0 14 6 -4 5 3 9 15 9 12 0 19 -4 15 -9 -3 -6 4 -15 15 -21 11 -6 20 -7 20 -3 0 4 5 1 10 -7 9 -13 10 -13 10 0 1 9 6 5 15 -10 8 -14 14 -20 15 -13 0 7 7 10 15 6 9 -3 13 -8 11 -11 -3 -3 -1 -11 4 -17 8 -9 4 -14 -15 -19 -40 -10 -60 -37 -57 -74 2 -18 7 -30 11 -28 4 3 8 -4 8 -15 1 -11 -2 -17 -7 -14 -4 3 -10 -2 -14 -10 -3 -8 -1 -15 3 -15 14 0 0 -43 -18 -57 -14 -11 -14 -12 1 -13 16 0 16 -3 1 -37 -10 -24 -11 -39 -5 -41 6 -2 8 -10 5 -18 -3 -8 1 -14 8 -14 9 0 10 -3 4 -8 -12 -9 -18 -32 -7 -32 4 0 6 -60 5 -133 -3 -230 -2 -258 7 -252 11 7 19 -66 10 -91 -5 -11 -4 -28 1 -37 7 -11 6 -17 -1 -17 -5 0 -10 -8 -10 -17 0 -23 -41 -68 -60 -67 -8 1 -30 2 -48 3 -25 1 -32 5 -30 19 2 10 -2 16 -11 14 -12 -3 -12 -1 -1 14 12 14 12 18 -1 28 -16 12 -33 60 -18 50 5 -3 9 -3 9 0 0 2 3 13 6 23 5 15 4 15 -5 3 -8 -12 -10 -11 -9 7 1 11 7 19 13 17 7 -3 11 12 11 41 1 25 -2 45 -5 45 -4 0 -7 47 -7 105 -1 58 3 105 7 105 5 0 9 5 9 11 0 5 -5 7 -11 3 -8 -4 -8 -1 -1 12 7 14 6 24 -3 38 -8 10 -12 23 -9 30 2 6 -5 12 -16 13 -11 1 -20 -3 -20 -8 0 -6 -5 -7 -10 -4 -6 4 -13 -7 -16 -24 -4 -17 -13 -31 -20 -31 -13 0 -18 -12 -15 -32 1 -8 -15 -12 -33 -9 -5 1 -6 -5 -3 -13 3 -8 -1 -17 -9 -20 -8 -3 -19 -17 -24 -31 -5 -14 -14 -25 -20 -25 -5 0 -10 -6 -10 -14 0 -7 -11 -21 -24 -32 -14 -10 -23 -21 -21 -25 3 -4 -3 -6 -12 -5 -10 0 -18 -5 -19 -11 -1 -7 -3 -16 -4 -20 -1 -5 -2 -11 -1 -15 0 -5 -3 -7 -8 -5 -5 1 -9 0 -8 -3 2 -14 -25 -50 -33 -45 -6 4 -7 -1 -3 -11 4 -11 3 -15 -5 -10 -6 3 -13 -3 -17 -14 -4 -11 -11 -18 -16 -15 -5 4 -9 3 -10 -2 -3 -29 -9 -47 -20 -53 -6 -5 -13 -28 -14 -51 -3 -56 -21 -95 -49 -104 -39 -13 -88 -17 -82 -6 4 5 2 12 -4 16 -5 3 -10 1 -10 -5 0 -7 -5 -6 -14 2 -10 9 -11 15 -2 20 8 6 8 8 -1 8 -8 0 -13 13 -13 33 0 18 -6 39 -12 46 -8 8 -8 11 -2 8 8 -4 12 3 12 21 0 15 7 46 16 69 17 47 30 153 17 153 -9 0 -10 4 -15 80 -2 30 -5 60 -7 67 -2 6 5 18 16 26 14 11 17 18 8 28 -6 8 -9 36 -7 64 2 29 -2 52 -8 57 -9 5 -9 10 0 21 7 7 9 16 7 19 -12 12 -14 53 -2 67 9 12 9 13 0 7 -7 -4 -13 -3 -13 3 0 5 4 12 8 15 10 6 6 101 -5 118 -4 7 -9 33 -10 58 0 25 -2 45 -3 45 -1 0 -3 13 -5 28 -2 29 -22 50 -37 41 -4 -3 -8 2 -8 11 0 9 -4 14 -10 10 -5 -3 -8 14 -6 42 5 65 4 63 21 63 8 0 15 4 15 9 0 9 21 8 68 -3 12 -3 20 -1 17 3 -3 5 6 12 20 15 14 4 25 12 26 19 0 7 3 6 7 -3 4 -9 20 -15 37 -15z m432 -17 c-3 -8 -6 -5 -6 6 -1 11 2 17 5 13 3 -3 4 -12 1 -19z m-1199 -85 c15 -3 64 -6 109 -6 44 -1 76 -5 70 -9 -15 -10 -16 -10 80 -13 45 -2 87 -6 94 -10 10 -7 117 -8 174 -2 14 1 19 -3 17 -15 -2 -11 3 -18 13 -18 8 0 14 -3 14 -7 -1 -5 -1 -10 1 -13 9 -26 6 -59 -6 -64 -9 -3 -13 -10 -9 -15 3 -6 -5 -19 -17 -30 -23 -22 -44 -29 -33 -11 3 6 -1 10 -10 10 -8 0 -19 8 -22 18 -10 26 -20 30 -84 27 -33 -1 -62 1 -65 6 -3 5 -14 3 -25 -4 -16 -10 -21 -9 -29 2 -13 23 -24 -31 -16 -82 13 -77 14 -127 4 -127 -6 0 -5 -6 2 -15 9 -10 9 -19 2 -27 -9 -12 -17 -79 -12 -103 1 -5 1 -14 0 -20 -7 -27 -4 -205 3 -205 5 0 6 -4 2 -9 -10 -17 -13 -71 -3 -71 5 0 2 -7 -7 -16 -15 -15 -14 -18 6 -40 13 -14 17 -24 10 -24 -7 0 -9 -4 -6 -10 3 -5 17 -10 30 -10 14 0 34 -8 45 -17 21 -18 28 -39 10 -28 -7 4 -9 -2 -5 -17 5 -18 -1 -28 -24 -46 -18 -13 -37 -19 -47 -15 -12 5 -15 3 -9 -6 5 -10 2 -11 -12 -7 -45 14 -103 9 -118 -10 -9 -13 -14 -14 -15 -5 0 7 -6 11 -15 7 -8 -3 -15 -1 -15 5 0 6 -4 7 -10 4 -5 -3 -21 6 -35 22 -25 29 -32 53 -15 53 5 0 12 11 16 25 4 14 9 24 12 21 2 -3 13 -1 24 5 13 7 17 16 13 30 -4 11 -3 19 2 18 20 -4 22 3 7 26 -9 14 -12 25 -8 25 5 0 2 5 -6 10 -10 7 -11 10 -2 10 8 0 11 11 9 35 -2 19 0 32 4 29 5 -3 9 -1 9 5 0 5 -4 12 -9 16 -6 3 -8 20 -6 37 2 18 -1 38 -7 45 -7 8 -7 13 0 13 6 0 9 30 8 76 0 42 2 78 6 80 4 3 3 15 -2 28 -5 13 -6 26 -4 29 3 3 7 22 10 43 3 22 7 53 10 69 3 17 6 38 8 47 1 10 5 21 9 24 12 12 8 54 -5 54 -6 0 -9 3 -5 6 3 3 1 12 -6 18 -7 9 -24 10 -52 5 -45 -8 -95 -1 -95 13 0 5 -6 8 -12 5 -7 -2 -21 2 -30 11 -11 9 -18 11 -18 4 0 -6 -6 -9 -14 -6 -8 3 -12 12 -10 19 3 7 0 16 -6 20 -8 5 4 23 35 51 25 25 51 42 56 38 6 -3 22 -8 37 -11z m1557 -23 c7 0 15 5 17 11 3 9 9 9 25 1 12 -7 43 -14 69 -17 57 -7 64 -11 64 -33 0 -15 2 -15 10 -2 8 13 10 12 10 -2 0 -10 -7 -18 -17 -18 -9 0 -13 -3 -10 -6 9 -10 -12 -46 -24 -39 -5 4 -9 3 -10 -2 0 -4 -3 -21 -5 -36 -3 -16 1 -36 8 -45 8 -9 8 -13 1 -9 -7 5 -11 -4 -12 -26 0 -17 -2 -57 -3 -87 -1 -30 2 -66 6 -79 5 -15 5 -21 -2 -17 -5 3 -12 -9 -16 -26 -4 -21 -2 -34 6 -40 10 -6 10 -8 1 -8 -11 0 -12 -26 -3 -50 2 -3 2 -37 1 -75 -1 -61 2 -72 20 -83 17 -11 25 -11 44 2 29 19 49 21 39 4 -6 -10 -4 -10 7 0 16 14 33 16 24 2 -3 -5 -2 -10 4 -10 5 0 13 5 16 10 4 7 13 6 26 -1 13 -7 24 -7 32 -1 7 6 30 9 52 8 22 -1 57 1 78 5 20 3 40 3 42 -2 3 -4 14 -7 24 -6 16 1 17 5 9 23 -6 13 -7 31 -3 41 13 29 13 197 1 205 -7 5 -5 8 5 8 12 0 16 8 14 28 -1 16 -5 34 -9 40 -4 7 -4 12 1 12 11 0 9 92 -2 109 -6 11 -4 13 7 9 11 -5 14 0 10 18 -2 13 -9 24 -14 24 -6 0 -8 7 -4 15 3 8 0 15 -7 15 -8 0 -8 3 1 9 10 6 7 10 -12 15 -14 3 -25 10 -23 15 1 5 -7 17 -18 26 -11 9 -14 14 -7 10 7 -4 12 0 12 9 0 9 12 22 28 29 38 20 102 31 102 17 0 -5 9 -10 21 -10 12 0 23 -8 26 -19 3 -13 11 -18 21 -15 14 5 14 4 0 -6 -20 -12 -24 -36 -7 -42 12 -4 18 -98 7 -98 -4 0 -6 -30 -4 -67 2 -38 -1 -74 -6 -80 -6 -7 -7 -13 -2 -13 5 0 10 -11 10 -25 1 -14 -2 -25 -6 -25 -10 0 -7 -26 3 -36 11 -12 8 -26 -4 -18 -7 4 -7 -1 1 -15 9 -17 9 -26 -1 -37 -7 -9 -8 -14 -1 -14 7 0 8 -10 2 -30 -5 -17 -5 -32 0 -35 7 -4 -4 -56 -13 -61 -1 0 4 -8 12 -17 7 -10 10 -17 6 -17 -4 0 -3 -6 3 -13 6 -7 9 -32 7 -55 -3 -31 0 -40 8 -35 7 4 6 0 -2 -10 -7 -9 -11 -26 -8 -37 3 -11 2 -20 -1 -20 -4 0 -8 -29 -8 -65 -1 -37 3 -65 8 -65 6 0 7 -8 3 -17 -4 -10 -11 -32 -15 -49 -6 -28 -5 -31 12 -26 12 3 30 -5 48 -23 25 -24 27 -30 18 -56 -10 -28 -20 -33 -63 -30 -17 2 -17 0 -5 -8 13 -9 13 -11 -2 -11 -9 0 -19 6 -21 13 -4 9 -8 9 -15 -2 -7 -9 -16 -11 -28 -6 -29 12 -47 12 -71 -2 -28 -16 -46 -17 -41 -1 5 15 -22 48 -40 48 -7 0 -2 10 12 24 15 13 26 31 26 41 0 10 7 26 15 35 20 22 32 90 17 90 -8 0 -9 8 -2 25 7 19 6 36 -5 62 -17 41 -18 46 -6 39 13 -9 7 22 -7 36 -9 9 -12 9 -12 0 0 -6 -7 -9 -15 -6 -8 4 -21 2 -28 -4 -6 -5 -21 -8 -31 -6 -11 1 -25 0 -30 -4 -18 -11 -48 -13 -41 -3 3 6 -4 7 -17 4 -43 -11 -122 -12 -141 -1 -14 7 -22 7 -27 -2 -4 -7 -13 -9 -19 -6 -6 4 -11 2 -11 -4 0 -6 -4 -9 -8 -6 -4 3 -8 -21 -9 -52 -1 -41 4 -60 16 -69 9 -7 11 -13 6 -13 -10 0 -10 -21 -2 -110 5 -43 -12 -88 -26 -73 -4 3 -7 2 -7 -4 0 -14 -117 -16 -125 -3 -4 6 -10 8 -14 6 -4 -3 -8 8 -9 25 0 17 -5 36 -10 42 -5 7 -9 44 -8 82 1 39 -2 76 -7 83 -7 9 -6 11 6 6 12 -4 14 0 11 23 -11 59 -11 119 -3 136 6 11 6 25 -2 38 -8 15 -8 19 0 15 6 -4 11 -3 11 3 0 5 -4 12 -10 16 -6 4 -6 15 0 30 7 17 6 25 -1 25 -8 0 -8 4 0 13 6 8 9 28 7 46 -2 17 1 34 6 37 5 3 1 12 -9 20 -13 10 -14 13 -4 14 8 0 11 3 8 7 -4 3 0 17 8 30 14 21 14 23 -2 23 -15 0 -16 2 -3 10 9 6 10 10 3 10 -8 0 -9 9 -3 29 4 16 7 43 6 60 -1 17 2 31 6 31 5 0 4 9 -2 19 -7 13 -7 28 0 45 5 14 6 26 1 26 -10 0 -8 51 2 67 7 12 -13 74 -28 86 -6 4 -5 10 4 16 7 5 11 14 7 20 -4 6 -1 17 6 25 7 8 15 10 16 5 2 -5 10 -9 17 -9z m908 -44 c6 7 32 -37 29 -48 -1 -5 5 -8 14 -8 10 0 14 -6 11 -15 -4 -8 -2 -17 3 -20 6 -4 10 -15 10 -26 0 -14 -4 -18 -12 -13 -9 5 -9 2 1 -9 7 -9 20 -17 28 -17 11 0 14 -7 10 -22 -4 -12 -1 -28 5 -36 16 -18 19 -42 6 -42 -5 0 -2 -7 6 -16 9 -8 16 -21 16 -28 0 -8 7 -19 15 -26 8 -7 12 -16 10 -21 -3 -4 18 -31 47 -60 29 -28 52 -56 50 -61 -1 -5 7 -7 18 -3 16 5 20 2 20 -17 0 -21 22 -44 43 -46 5 0 17 -11 28 -24 l20 -23 20 25 c10 14 17 33 15 42 -2 10 0 21 5 24 15 9 10 36 -8 51 -10 8 -13 12 -6 9 6 -4 14 -2 18 4 3 5 1 10 -6 10 -8 0 -9 3 0 13 6 8 9 16 6 18 -2 3 0 22 6 43 8 29 7 41 -3 54 -11 14 -11 15 6 9 16 -6 17 -5 6 8 -12 15 -18 114 -7 131 10 17 -5 65 -19 60 -17 -6 -17 -5 -3 31 8 22 12 25 20 13 8 -11 9 -10 4 8 -5 18 -2 22 17 23 13 1 27 0 33 -1 5 -1 19 -2 31 -3 25 -2 64 -46 64 -71 0 -9 4 -16 8 -16 4 0 8 -22 8 -50 1 -27 -2 -50 -6 -50 -10 0 -6 -92 4 -109 7 -11 5 -13 -10 -7 -15 6 -16 5 -7 -5 9 -9 9 -18 -2 -40 -13 -24 -13 -28 0 -33 18 -6 20 -27 3 -24 -7 2 -12 -15 -12 -47 -1 -28 -5 -56 -10 -63 -4 -6 -3 -12 3 -12 6 0 6 -12 0 -34 -5 -19 -8 -38 -7 -43 4 -12 -50 -62 -59 -54 -4 3 -2 -1 4 -9 13 -17 -4 -50 -26 -50 -6 0 -11 -9 -11 -19 0 -11 -5 -23 -10 -26 -6 -4 -8 -11 -5 -16 4 -5 1 -9 -5 -9 -6 0 -13 -8 -17 -17 -3 -10 -15 -29 -27 -42 -15 -17 -18 -25 -8 -28 17 -6 -4 -33 -26 -33 -8 0 -12 -3 -9 -7 11 -10 -14 -33 -37 -33 -12 0 -27 -9 -34 -20 -7 -12 -17 -18 -22 -15 -6 3 -10 1 -10 -4 0 -6 -3 -10 -7 -10 -23 4 -32 -3 -26 -18 6 -15 4 -16 -8 -6 -9 7 -20 8 -28 3 -8 -4 -21 -6 -30 -3 -14 4 -14 3 -1 -5 8 -6 18 -8 24 -5 5 3 6 1 2 -6 -4 -6 -17 -9 -29 -6 -84 19 -81 19 -74 1 5 -12 3 -16 -5 -13 -7 2 -12 11 -10 20 2 11 -2 15 -13 11 -8 -3 -15 -2 -15 4 0 6 6 13 13 15 9 4 9 6 0 6 -27 2 -43 -43 -43 -118 0 -105 -10 -83 -12 28 -2 72 -5 90 -16 86 -7 -2 -10 -1 -7 4 3 5 1 12 -5 16 -5 3 -12 28 -16 55 -4 28 -11 50 -16 50 -5 0 5 13 23 30 24 21 35 26 41 17 6 -9 8 -9 8 1 0 15 53 8 58 -8 2 -5 12 -10 23 -10 10 0 19 -4 19 -8 0 -5 19 -8 43 -6 23 1 50 3 60 3 10 1 15 6 12 11 -3 6 -2 10 3 10 18 0 54 39 46 51 -4 8 -3 9 5 5 6 -4 14 0 18 11 4 10 11 21 16 24 6 4 16 24 23 45 16 44 17 50 8 41 -4 -3 -27 8 -53 26 -25 17 -49 31 -53 29 -5 -1 -8 2 -8 6 0 15 -37 52 -44 45 -3 -4 -13 3 -22 15 -8 12 -22 22 -30 22 -8 0 -12 5 -9 10 3 6 -1 10 -9 10 -9 0 -16 5 -16 10 0 11 -9 24 -41 59 -8 9 -14 22 -12 27 2 6 -11 20 -28 33 -24 18 -28 25 -18 32 9 5 9 9 3 9 -10 0 -20 23 -24 55 -1 6 -6 16 -12 22 -6 7 -8 19 -5 28 4 8 0 18 -8 22 -7 5 -15 13 -17 18 -2 6 -6 9 -9 8 -3 -1 -3 17 2 40 4 23 3 44 -1 47 -14 9 -28 54 -21 71 3 9 14 15 24 13 10 -1 21 4 23 11 4 10 12 11 29 5 13 -5 25 -6 28 -4z m527 10 c0 -3 -4 -8 -10 -11 -5 -3 -10 -1 -10 4 0 6 5 11 10 11 6 0 10 -2 10 -4z m-2556 -1168 c-5 -7 10 -12 29 -9 4 0 7 -8 7 -20 0 -11 4 -18 9 -15 5 3 11 -15 13 -42 2 -26 1 -48 -4 -50 -4 -2 -2 -14 4 -28 9 -18 16 -23 32 -18 12 3 26 11 31 16 6 6 3 7 -10 2 -11 -4 -17 -3 -12 1 4 5 15 9 25 10 29 4 52 17 46 26 -3 5 -2 9 3 8 30 -5 55 3 60 21 3 10 15 22 27 26 11 4 23 10 26 14 3 5 23 11 44 15 33 7 38 5 33 -7 -3 -10 3 -19 17 -26 35 -16 48 -111 32 -227 -6 -46 -11 -52 -52 -77 -25 -16 -49 -28 -54 -28 -13 0 -24 31 -26 75 -1 22 -5 49 -7 60 -3 11 -6 23 -6 26 -1 4 -9 9 -19 11 -22 6 -66 -15 -55 -26 4 -4 0 -4 -8 -1 -10 4 -35 -8 -64 -31 -27 -20 -63 -43 -81 -50 -18 -8 -35 -18 -39 -24 -10 -16 -39 -12 -55 8 -15 17 -16 27 -8 109 2 23 -1 52 -8 65 -7 13 -9 29 -4 38 5 9 8 42 7 75 -1 38 3 60 11 63 7 2 10 7 8 10 -2 4 9 7 24 7 16 1 26 -3 24 -7z m-1547 -110 c-3 -7 -5 -2 -5 12 0 14 2 19 5 13 2 -7 2 -19 0 -25z m33 -49 c0 -16 -4 -29 -10 -29 -5 0 -10 16 -10 36 0 21 4 33 10 29 6 -3 10 -19 10 -36z m3742 23 c7 2 12 -5 10 -14 -1 -9 6 -22 16 -30 10 -7 22 -19 27 -27 6 -11 4 -13 -11 -7 -10 4 -15 4 -12 0 4 -4 -2 -18 -13 -32 -11 -14 -16 -28 -12 -31 16 -12 13 -31 -6 -43 -10 -6 -17 -17 -15 -23 3 -7 -2 -18 -11 -25 -8 -7 -15 -9 -15 -4 0 11 -20 -18 -20 -29 0 -5 4 -6 8 -3 5 3 9 -1 9 -9 0 -8 -4 -15 -9 -15 -5 0 -6 -4 -3 -10 5 -9 -7 -14 -26 -12 -4 1 -10 -13 -13 -31 -5 -25 -9 -29 -16 -17 -8 12 -10 11 -10 -7 0 -12 -5 -25 -10 -28 -6 -4 -8 -10 -5 -15 3 -5 0 -12 -7 -17 -7 -4 -21 -22 -30 -40 -13 -25 -13 -31 -2 -26 18 7 17 -7 -1 -31 -9 -12 -15 -15 -15 -7 0 8 -10 1 -22 -15 -35 -45 -42 -51 -56 -46 -9 3 -11 -5 -7 -30 8 -43 25 -61 20 -19 -2 17 0 31 5 31 6 0 10 -4 10 -9 0 -17 45 -21 57 -5 6 9 24 15 40 14 36 -2 74 10 67 21 -3 5 0 9 5 9 6 0 11 -4 11 -8 0 -11 32 -12 46 -1 7 6 16 3 24 -6 7 -8 16 -13 20 -10 4 2 13 -7 20 -20 7 -13 17 -22 22 -19 4 3 8 0 8 -5 0 -6 -5 -11 -11 -11 -6 0 -8 -7 -5 -16 4 -10 2 -13 -6 -8 -8 5 -9 2 -5 -9 3 -10 2 -17 -4 -17 -6 0 -7 -5 -4 -10 4 -6 10 -8 14 -6 4 3 8 -6 9 -20 1 -13 -3 -24 -9 -24 -8 0 -8 -4 0 -14 9 -11 8 -14 -6 -12 -13 1 -19 -7 -21 -27 -2 -15 -8 -25 -13 -22 -5 3 -6 -1 -3 -9 6 -16 -4 -20 -36 -17 -13 2 -13 1 0 -9 12 -8 12 -12 2 -18 -7 -5 -12 -15 -10 -23 2 -8 -7 -15 -19 -17 -17 -2 -25 -14 -33 -43 -6 -21 -15 -39 -21 -39 -6 0 -7 -4 -4 -10 4 -6 -1 -7 -11 -3 -11 4 -15 3 -11 -4 4 -6 1 -13 -5 -15 -7 -3 -13 -12 -13 -21 0 -9 -3 -16 -6 -14 -16 6 -35 -25 -31 -51 3 -22 -2 -31 -22 -41 -14 -8 -23 -18 -21 -22 3 -4 -5 -9 -17 -11 -16 -2 -23 -10 -23 -25 0 -12 -5 -26 -9 -30 -5 -5 -6 -2 -1 6 5 10 4 12 -4 7 -6 -4 -9 -12 -5 -17 7 -12 -15 -41 -27 -33 -9 5 -13 -8 -28 -86 l-9 -45 1 47 c0 26 -2 51 -6 54 -4 4 -7 -5 -7 -20 0 -14 -7 -29 -15 -32 -8 -4 -15 -12 -15 -19 0 -7 -7 -18 -15 -25 -11 -9 -15 -40 -17 -118 l-3 -107 -9 102 c-6 71 -13 103 -22 107 -8 3 -14 1 -14 -5 0 -5 -6 -4 -14 3 -8 7 -12 16 -9 21 2 4 -3 10 -11 13 -9 3 -14 9 -11 14 2 4 -7 6 -21 4 -23 -2 -25 0 -19 24 3 15 13 32 20 38 8 6 12 14 9 17 -3 3 5 3 18 0 20 -6 22 -5 9 10 -12 15 -10 18 10 26 13 5 28 6 33 3 5 -3 6 0 2 7 -4 6 -11 9 -16 6 -5 -3 -11 -1 -15 5 -4 6 -11 7 -17 4 -6 -4 -8 -2 -5 3 4 6 20 13 37 16 20 4 30 13 30 24 0 14 2 15 9 4 7 -10 10 -10 16 -1 4 7 1 16 -6 21 -11 7 -11 9 -1 9 7 0 10 5 7 10 -3 6 0 12 7 15 8 3 14 15 15 27 1 11 11 31 23 43 12 12 22 32 23 44 1 15 13 25 42 34 26 9 41 20 43 33 3 17 2 18 -11 2 -8 -10 -18 -13 -26 -9 -12 8 9 19 44 25 6 1 9 9 9 19 -1 9 3 14 8 11 5 -3 8 0 7 7 -3 22 12 50 24 42 6 -3 7 -1 3 6 -4 6 -2 18 4 26 10 12 10 15 0 15 -8 0 -10 3 -6 7 4 5 13 8 18 8 6 0 12 6 14 13 1 7 0 8 -3 2 -2 -5 -8 -8 -13 -5 -4 3 -13 -2 -20 -10 -15 -18 -40 -20 -40 -3 0 6 -7 3 -16 -8 -8 -10 -13 -14 -10 -7 9 17 -15 28 -25 12 -4 -8 -21 -14 -36 -14 -20 -1 -32 -8 -41 -28 -12 -24 -15 -25 -28 -13 -11 11 -22 12 -46 5 -18 -5 -34 -9 -36 -9 -2 0 0 -5 4 -12 5 -7 2 -9 -7 -6 -10 4 -16 -1 -17 -16 -2 -11 -4 -30 -6 -41 -2 -11 -4 -36 -5 -55 l-2 -35 -13 30 c-7 17 -9 33 -4 36 5 3 8 26 6 50 -1 34 -9 50 -30 69 -15 13 -28 31 -28 39 0 7 -8 20 -17 28 -16 13 -15 14 16 10 31 -4 32 -3 16 10 -18 12 -18 13 3 13 12 0 22 5 22 11 0 5 -5 7 -12 3 -7 -4 -8 -3 -4 5 4 6 12 8 18 5 6 -4 16 0 22 8 6 8 16 17 21 19 6 2 9 9 7 15 -1 6 5 17 13 24 8 7 15 18 15 24 0 6 9 18 20 26 14 10 17 17 8 27 -8 10 -7 12 4 8 11 -5 16 0 16 17 0 13 16 41 37 63 77 82 81 88 63 82 -14 -5 -15 -3 -2 21 17 33 18 49 2 58 -8 5 -9 0 -6 -14 4 -12 2 -25 -3 -28 -5 -3 -9 2 -9 10 0 17 -15 21 -25 7 -3 -5 -19 -12 -35 -16 -17 -4 -28 -10 -26 -14 3 -4 -11 -15 -29 -25 -20 -11 -32 -24 -28 -30 4 -6 0 -6 -8 1 -26 21 -59 -18 -59 -69 0 -59 -10 -41 -14 26 -3 52 -15 89 -17 55 -1 -8 -5 -3 -9 11 -7 20 -8 16 -9 -22 -1 -27 -5 -48 -10 -48 -7 0 -8 47 -2 173 1 10 6 15 11 12 6 -3 10 1 10 10 0 9 4 14 10 10 5 -3 19 4 31 16 11 11 26 22 33 23 6 1 27 17 47 37 20 19 55 43 78 53 22 11 41 23 41 27 0 5 7 6 15 3 10 -4 15 0 15 10 0 13 7 15 32 11 27 -5 30 -4 18 10 -7 8 -9 16 -4 16 5 1 14 2 19 3 28 3 75 30 75 42 0 8 7 14 15 14 8 0 15 3 15 8 0 4 16 7 35 6 19 -1 32 2 29 7 -3 5 -11 6 -17 2 -8 -4 -8 -1 1 9 10 13 21 14 52 7 22 -5 45 -8 52 -7z m-3742 -97 c0 -8 -4 -15 -10 -15 -5 0 -10 7 -10 15 0 8 5 15 10 15 6 0 10 -7 10 -15z m-9 -82 c-12 -20 -14 -14 -5 12 4 9 9 14 11 11 3 -2 0 -13 -6 -23z m2379 -33 c0 10 3 11 8 4 4 -7 24 -19 45 -27 33 -14 37 -20 38 -54 1 -21 1 -41 0 -45 0 -4 4 -19 9 -33 7 -18 6 -25 -2 -25 -6 0 -8 -3 -5 -7 4 -3 2 -12 -4 -20 -9 -9 -8 -17 1 -27 8 -11 11 -73 10 -218 -2 -206 3 -304 14 -315 3 -4 6 2 6 12 0 13 3 15 13 7 10 -8 16 -6 25 9 9 15 9 19 0 19 -7 0 -5 5 4 13 9 6 26 31 38 55 12 23 26 42 31 42 5 0 15 16 23 35 8 19 20 35 25 35 6 0 8 7 5 15 -4 8 1 17 10 21 9 3 16 11 16 18 0 6 9 18 19 26 11 7 18 17 15 22 -3 4 0 8 6 8 6 0 8 5 5 10 -3 6 1 10 10 10 9 0 14 4 10 9 -3 5 -1 12 5 16 6 4 8 11 4 16 -3 5 0 8 7 7 7 -2 15 5 17 15 2 11 13 28 24 39 15 15 17 23 8 33 -9 11 -7 12 9 8 14 -3 21 -1 21 9 0 22 47 20 73 -5 19 -17 23 -27 16 -45 -6 -16 -5 -21 2 -16 8 4 9 -3 4 -25 -4 -17 -2 -31 3 -31 5 0 9 -6 9 -12 0 -7 8 -30 17 -50 12 -29 13 -38 4 -38 -10 0 -10 -2 1 -9 7 -5 9 -11 4 -14 -11 -7 -10 -248 1 -266 6 -10 5 -12 -2 -7 -7 4 -12 1 -12 -8 0 -8 4 -17 10 -21 5 -3 6 -16 2 -28 -5 -12 -7 -42 -5 -67 2 -25 3 -54 3 -65 1 -11 5 -35 10 -53 8 -30 7 -32 -7 -20 -15 12 -15 11 -4 -10 10 -18 9 -28 -2 -52 -13 -24 -13 -31 -2 -40 21 -17 -2 -60 -32 -60 -12 0 -23 -4 -23 -9 0 -5 -13 -3 -29 5 -29 15 -47 49 -30 60 5 3 4 15 -3 27 -7 12 -11 28 -9 36 1 8 -2 10 -11 5 -10 -6 -10 -5 -2 7 15 20 26 51 15 44 -5 -3 -13 0 -17 6 -4 7 -3 9 4 5 17 -10 23 10 12 38 -5 14 -6 26 -2 26 9 0 9 222 -1 237 -4 6 -3 14 2 17 13 8 8 36 -8 46 -8 4 -11 16 -7 28 6 17 1 21 -24 27 -37 8 -39 6 -46 -30 -3 -16 -1 -24 6 -20 5 3 7 0 4 -9 -3 -8 -12 -17 -20 -20 -7 -3 -11 -12 -8 -21 4 -9 1 -15 -8 -15 -12 0 -41 -43 -40 -60 1 -3 -9 -15 -20 -27 -12 -13 -18 -23 -13 -23 12 0 -26 -35 -47 -43 -11 -4 -15 -12 -12 -22 3 -8 2 -15 -4 -15 -5 0 -9 -8 -8 -17 0 -11 -5 -17 -13 -15 -9 2 -12 -4 -9 -16 4 -15 1 -18 -21 -15 -14 2 -21 0 -14 -3 9 -4 7 -11 -6 -25 -10 -11 -17 -30 -16 -44 2 -18 -3 -25 -23 -30 -20 -5 -23 -8 -12 -15 12 -7 12 -10 -3 -16 -9 -3 -17 -14 -17 -24 0 -17 -34 -37 -54 -32 -13 4 -34 -30 -46 -76 -9 -35 -13 -40 -24 -30 -8 7 -11 15 -7 18 3 3 7 13 9 24 2 12 -1 16 -9 10 -8 -5 -10 -3 -4 5 9 16 -15 102 -27 95 -10 -6 0 46 12 59 4 5 4 25 -1 45 -4 20 -4 43 2 53 5 11 5 27 0 42 -6 14 -7 28 -4 31 4 3 1 6 -5 6 -7 0 -6 11 3 34 14 33 14 44 -2 84 -4 9 -8 37 -9 62 -1 25 -4 57 -7 73 -4 17 -1 27 6 27 7 0 6 4 -3 10 -10 6 -11 10 -3 10 13 0 13 34 0 46 -3 4 -4 11 0 16 7 13 12 140 5 152 -2 4 -6 27 -8 50 -2 22 -5 48 -5 56 -1 8 -9 24 -18 35 -12 15 -13 17 -1 8 13 -10 15 -3 17 49 1 57 16 104 38 120 6 5 4 8 -5 8 -9 1 -5 6 10 14 14 8 28 12 32 10 5 -3 8 1 8 8 0 9 3 9 10 -2 9 -13 10 -13 10 0z m-2369 -19 c1 -9 1 -27 0 -41 -1 -23 0 -23 8 -5 9 19 10 19 10 -2 1 -24 21 -30 81 -24 85 8 178 5 202 -7 21 -10 32 -10 48 -2 20 10 20 9 16 -27 -2 -21 -5 -51 -5 -66 -1 -17 -5 -26 -11 -22 -6 4 -19 3 -28 -1 -20 -8 -40 -14 -64 -16 -10 -1 -18 -6 -18 -11 0 -5 -7 -4 -15 3 -11 9 -15 9 -15 1 0 -7 -5 -9 -10 -6 -6 4 -18 1 -27 -7 -12 -9 -15 -9 -9 0 4 6 3 12 -1 12 -5 0 -15 -6 -22 -12 -11 -10 -13 -10 -7 0 4 6 3 12 -3 12 -15 0 -24 -39 -13 -53 11 -13 22 -128 12 -122 -5 3 -4 -91 1 -122 1 -4 0 -10 -1 -13 -7 -19 -7 -39 1 -34 5 3 4 -7 -1 -21 -13 -34 -13 -85 0 -85 6 0 10 -5 10 -11 0 -5 -4 -7 -10 -4 -15 9 -12 -8 6 -33 15 -21 15 -24 0 -35 -12 -10 -15 -30 -12 -112 1 -55 -1 -110 -5 -122 -6 -17 -3 -28 13 -43 11 -10 26 -17 31 -13 6 3 7 1 3 -6 -10 -16 3 -73 15 -65 5 3 1 -10 -8 -29 -12 -22 -23 -32 -32 -29 -8 3 -12 1 -9 -4 4 -5 -10 -9 -30 -8 -24 0 -36 5 -34 13 1 7 -2 10 -7 7 -5 -4 -20 -2 -33 3 -38 14 -45 2 -47 -73 -1 -38 -4 -72 -7 -75 -3 -3 -5 19 -4 49 3 87 3 87 -27 87 -49 1 -88 11 -86 22 2 6 -1 11 -5 11 -6 0 -8 50 -2 58 4 3 7 20 9 38 0 8 6 12 12 9 5 -4 24 -1 40 5 22 10 28 17 24 31 -4 11 -2 19 5 19 6 0 9 4 6 9 -4 5 -2 11 4 13 17 5 15 203 -2 214 -4 3 -2 11 5 19 15 14 11 75 -4 75 -5 0 -6 7 -3 15 4 8 1 15 -6 15 -9 0 -9 4 1 16 17 20 22 51 9 59 -6 4 -6 15 0 31 6 14 8 30 4 35 -3 5 -2 14 2 21 6 10 10 113 4 113 -1 0 -3 15 -5 34 -2 22 0 29 6 20 6 -10 8 -6 7 13 -2 18 -6 24 -13 18 -14 -11 -132 -16 -162 -6 -12 4 -31 27 -44 53 -18 37 -19 47 -8 54 12 8 12 11 -1 19 -12 8 -11 10 8 10 12 0 22 4 22 8 0 5 6 9 13 9 20 1 42 8 48 15 3 5 30 10 60 13 37 4 59 11 70 25 9 10 19 17 22 13 9 -8 5 41 -5 53 -4 6 -2 11 7 11 8 0 15 -7 16 -16z m4053 -55 c-4 -12 -2 -16 5 -12 6 4 11 2 11 -4 0 -6 5 -8 10 -5 6 3 10 -3 10 -14 0 -12 8 -26 19 -32 11 -8 17 -20 14 -33 -4 -16 -2 -18 5 -7 8 10 11 6 17 -18 4 -18 13 -35 21 -38 8 -3 12 -9 9 -14 -9 -14 6 -59 18 -52 6 4 7 1 2 -7 -4 -7 -3 -15 3 -19 7 -4 13 -18 16 -31 2 -14 9 -24 15 -23 9 3 13 -9 10 -33 -1 -8 42 -44 53 -44 5 0 7 -4 3 -9 -3 -5 1 -15 8 -23 8 -7 19 -24 26 -36 7 -13 17 -20 23 -16 7 5 9 1 5 -9 -3 -10 -2 -17 4 -17 6 0 7 -6 3 -12 -4 -7 7 1 24 17 17 17 32 37 34 45 2 8 10 20 18 27 10 9 11 12 3 13 -7 0 -13 4 -13 10 0 5 6 7 13 4 8 -3 21 11 33 36 10 22 26 40 34 40 13 0 13 1 0 10 -12 8 -12 10 2 15 9 4 19 17 22 31 4 13 13 24 21 24 7 0 17 10 21 22 8 27 29 49 38 41 3 -4 6 1 6 11 0 9 6 19 14 22 8 3 12 12 9 20 -3 7 2 17 11 20 9 3 14 10 11 15 -8 12 31 30 51 22 13 -5 15 -3 9 8 -7 10 -1 9 18 -4 15 -10 33 -16 40 -15 7 2 12 -1 12 -7 0 -5 -7 -8 -15 -6 -12 2 -11 -1 3 -17 19 -21 20 -71 2 -84 -7 -5 -7 -10 0 -15 9 -7 11 -28 5 -43 -1 -3 -3 -15 -4 -27 -2 -15 2 -19 13 -15 14 5 14 3 3 -10 -9 -12 -10 -18 -2 -23 8 -5 8 -11 -1 -21 -15 -18 -18 -54 -6 -78 7 -13 6 -16 -3 -11 -9 6 -9 3 -1 -13 12 -23 15 -66 8 -99 -3 -13 0 -28 6 -35 15 -16 19 -198 4 -198 -6 0 -6 -5 1 -12 5 -7 9 -28 7 -45 -2 -25 1 -33 14 -33 13 0 13 -2 2 -9 -8 -5 -11 -16 -7 -26 3 -10 9 -15 13 -12 3 4 12 2 20 -4 9 -9 13 -8 13 0 0 6 5 11 10 11 6 0 10 -7 10 -16 0 -9 8 -23 18 -31 9 -8 12 -12 5 -9 -6 4 -20 -4 -30 -17 -27 -35 -62 -55 -83 -50 -23 6 -28 -13 -33 -107 -3 -61 -3 -59 -5 18 l-2 83 -45 20 c-25 11 -45 26 -45 34 0 8 -4 15 -9 15 -13 0 -7 30 7 39 7 4 10 35 7 91 -2 47 -5 85 -6 85 -1 0 -3 17 -4 38 -1 20 1 37 6 37 4 0 4 12 0 28 -4 15 -7 59 -7 99 1 39 -2 69 -6 67 -4 -2 -7 13 -6 34 0 22 -3 49 -7 61 -7 24 -25 19 -25 -7 0 -10 -8 -25 -17 -34 -33 -31 -43 -47 -45 -73 -1 -14 -9 -25 -17 -25 -8 0 -12 -3 -8 -6 7 -7 -17 -34 -30 -34 -11 0 -48 -44 -43 -50 3 -3 9 -4 13 -2 5 1 6 -2 2 -8 -3 -6 -10 -8 -15 -5 -5 3 -12 -5 -16 -17 -3 -12 -13 -29 -21 -37 -20 -20 -98 -24 -114 -5 -6 7 -16 11 -21 8 -5 -3 -12 3 -15 14 -3 11 -12 23 -20 26 -8 3 -12 10 -8 15 3 5 -4 12 -15 16 -15 5 -20 14 -18 33 2 19 -5 31 -30 48 -18 12 -28 24 -22 26 6 2 3 12 -7 24 -10 11 -19 26 -21 34 -7 28 -19 43 -26 31 -4 -6 -3 -11 2 -11 5 0 8 -10 6 -22 -1 -13 -3 -23 -4 -23 -7 0 -5 -213 2 -227 5 -11 5 -18 -1 -18 -14 0 -23 -51 -11 -65 8 -10 8 -20 2 -31 -10 -18 1 -50 23 -67 6 -4 1 -15 -13 -26 -13 -12 -18 -21 -10 -23 13 -5 12 -129 -2 -175 -7 -23 -9 -18 -10 32 -2 53 -3 56 -10 25 l-7 -35 -2 38 c-1 42 -6 44 -34 19 -15 -12 -18 -13 -12 -2 4 8 -2 4 -15 -8 -16 -18 -25 -21 -30 -12 -4 7 -13 9 -19 6 -6 -4 -11 -2 -11 3 0 6 -6 11 -12 11 -7 0 -22 12 -32 27 -11 14 -14 23 -8 19 8 -4 16 2 21 16 6 13 10 19 11 13 0 -9 17 15 36 54 4 7 1 17 -6 21 -7 5 -9 13 -4 21 13 22 14 60 0 65 -7 3 -13 11 -13 19 0 8 4 12 8 10 10 -7 18 31 8 46 -4 7 -6 28 -3 47 2 19 -1 41 -7 48 -6 8 -7 14 -2 14 5 0 9 8 10 18 1 9 3 29 6 45 2 15 1 27 -3 27 -8 0 -6 37 2 46 10 9 -3 35 -13 28 -5 -3 -5 5 0 18 4 13 7 31 6 41 -2 9 0 17 5 17 11 0 7 33 -5 42 -5 4 -2 10 8 14 17 6 17 7 0 21 -10 8 -13 12 -6 8 8 -3 12 2 11 17 -3 81 2 118 19 118 16 0 16 1 0 13 -18 12 -18 58 -2 100 4 10 3 17 -4 17 -8 0 -8 4 1 14 7 8 16 12 21 9 4 -2 7 0 7 5 0 6 11 9 25 8 19 -1 23 -5 19 -20z m-2894 -15 c24 -7 25 -10 26 -91 1 -47 4 -98 6 -115 2 -16 0 -40 -4 -52 -4 -13 -4 -23 0 -23 7 0 9 -24 9 -215 1 -109 -5 -360 -8 -360 -1 0 -3 -24 -5 -53 -2 -29 -8 -61 -14 -72 -5 -10 -11 -88 -12 -172 l-2 -153 -6 150 c-3 83 -9 144 -13 138 -20 -32 -113 0 -100 34 4 9 2 14 -3 11 -5 -4 -10 20 -12 55 -1 34 -4 74 -6 89 -2 15 1 46 7 69 9 35 8 44 -6 54 -9 7 -13 15 -9 19 4 4 7 31 7 59 0 29 3 59 5 67 3 9 0 14 -8 12 -10 -2 -12 4 -7 20 11 36 11 40 -3 45 -9 4 -11 -2 -6 -23 4 -16 3 -25 -3 -21 -14 9 -34 -8 -36 -31 0 -11 -5 -18 -9 -16 -8 5 -12 -11 -9 -30 3 -12 -17 -24 -61 -36 -20 -6 -46 -22 -57 -37 -12 -14 -21 -22 -21 -17 0 4 -6 -1 -14 -11 -8 -11 -12 -25 -9 -32 3 -7 0 -13 -7 -13 -6 0 -8 -5 -5 -10 3 -6 -5 -14 -19 -20 -14 -5 -26 -12 -26 -15 0 -4 5 -3 12 1 7 4 8 3 4 -4 -4 -7 -14 -12 -22 -12 -8 0 -14 -7 -14 -15 0 -8 -7 -15 -17 -15 -9 0 -13 -3 -10 -6 4 -4 -2 -19 -13 -34 -13 -19 -16 -30 -8 -38 7 -7 3 -15 -16 -27 -14 -10 -24 -21 -21 -25 2 -4 -3 -14 -13 -22 -21 -18 -62 -30 -62 -17 0 4 -7 6 -16 2 -10 -4 -15 -1 -13 8 4 20 -10 69 -20 69 -5 0 -5 17 0 40 11 50 6 99 -12 111 -11 7 -12 9 0 9 7 0 11 6 7 15 -3 8 -2 15 3 15 9 0 12 19 11 84 0 26 5 55 11 62 10 12 8 13 -6 8 -13 -5 -16 -4 -11 4 7 11 18 77 20 115 0 9 4 17 8 17 4 0 8 5 8 10 0 6 -5 9 -11 8 -6 -2 -14 3 -16 10 -4 9 3 11 24 7 20 -5 24 -4 14 3 -9 6 -13 24 -12 46 3 44 3 71 2 211 0 84 3 113 15 125 11 11 18 12 32 4 10 -6 32 -15 49 -18 42 -10 55 -27 59 -83 2 -27 4 -50 5 -53 1 -3 1 -8 0 -12 0 -5 4 -8 9 -8 14 0 13 -37 -1 -42 -7 -2 -12 -30 -13 -70 -1 -54 2 -65 14 -61 8 2 5 -2 -8 -9 -13 -9 -19 -17 -13 -23 15 -16 20 -105 6 -118 -6 -7 -10 -18 -7 -26 2 -7 -1 -17 -9 -21 -7 -5 -14 -16 -15 -26 -2 -9 -9 -21 -16 -25 -10 -7 -10 -11 2 -19 20 -13 31 -12 54 5 11 8 17 15 13 15 -11 0 24 52 47 72 18 15 19 19 6 28 -15 10 -14 10 23 14 6 0 13 10 15 21 4 21 122 102 142 97 7 -1 9 2 5 7 -7 12 13 49 40 73 11 9 16 17 11 18 -5 0 -3 7 4 15 7 8 9 15 6 15 -4 0 0 7 8 16 9 8 16 23 17 32 2 47 7 66 17 70 7 2 12 8 12 13 0 6 -6 7 -12 3 -10 -5 -10 -4 -1 6 8 8 9 20 3 36 -7 16 -5 26 4 31 13 8 30 43 28 56 -2 9 43 8 78 -2z m930 -68 c0 -7 5 -13 12 -13 6 0 4 -8 -6 -19 -13 -15 -14 -20 -4 -24 8 -3 6 -6 -6 -6 -15 -1 -16 -4 -6 -16 9 -10 9 -15 1 -15 -6 0 -2 -9 9 -20 23 -23 26 -50 8 -68 -7 -7 -8 -12 -4 -12 5 0 3 -6 -3 -14 -10 -12 -9 -20 4 -39 11 -17 13 -27 6 -32 -7 -3 -9 -20 -5 -38 3 -18 8 -95 10 -172 2 -77 5 -176 7 -220 1 -44 -1 -88 -6 -97 -5 -12 -3 -18 5 -18 8 0 9 -3 3 -8 -5 -4 -11 -27 -12 -52 -1 -32 -8 -49 -25 -63 -13 -10 -17 -15 -9 -11 9 5 12 3 7 -4 -4 -7 -15 -12 -25 -12 -10 0 -21 -3 -24 -7 -11 -10 -56 -12 -62 -2 -4 5 -1 9 6 9 9 0 9 3 0 14 -7 8 -11 44 -10 87 1 41 -1 81 -5 89 -3 9 -6 33 -5 55 3 69 -1 130 -10 144 -9 14 -101 22 -101 8 0 -4 -5 -5 -12 -1 -22 14 -101 15 -109 2 -7 -10 -9 -8 -9 5 0 15 -3 16 -21 6 -17 -9 -23 -8 -30 2 -5 8 -9 9 -9 3 0 -6 -16 -10 -41 -8 -41 2 -66 -19 -39 -36 8 -5 9 -13 3 -26 -6 -11 -9 -37 -8 -59 1 -22 -3 -46 -8 -53 -7 -9 -6 -11 7 -6 15 6 15 3 0 -31 -8 -20 -10 -34 -5 -30 8 4 8 -2 2 -18 -5 -13 -12 -39 -15 -57 -2 -18 -10 -36 -17 -40 -6 -5 -8 -13 -4 -20 5 -8 4 -11 -3 -6 -6 3 -17 -1 -25 -9 -9 -8 -26 -15 -39 -15 -13 0 -30 -6 -37 -13 -11 -10 -13 -9 -8 4 5 16 -18 20 -41 5 -6 -4 -12 -2 -12 3 0 6 5 11 10 11 6 0 10 7 10 16 0 8 6 22 14 29 10 10 12 25 7 47 -10 47 -7 63 9 60 11 -3 10 1 -3 16 -9 10 -17 23 -17 28 0 5 5 2 11 -6 10 -14 8 19 -5 80 -2 8 1 23 6 34 8 14 7 17 -3 11 -8 -6 -10 -4 -4 4 10 18 13 71 3 71 -5 0 -4 9 2 19 6 13 7 28 1 44 -7 18 -5 28 7 41 9 9 12 16 7 16 -11 0 -12 236 -1 261 4 9 8 35 9 59 2 37 -2 46 -21 56 -33 17 -50 34 -33 34 8 0 11 7 8 20 -9 36 74 58 109 29 6 -5 16 -9 20 -7 5 1 20 -4 32 -11 18 -10 23 -19 19 -38 -3 -15 1 -27 9 -30 11 -4 12 -9 4 -18 -8 -10 -8 -15 0 -20 8 -5 8 -11 -1 -21 -8 -10 -9 -22 -2 -37 5 -12 8 -42 6 -67 -4 -63 -4 -61 -2 -97 1 -18 6 -33 10 -33 4 0 4 -12 0 -28 -8 -27 -8 -27 38 -26 25 1 46 3 46 4 0 1 9 3 20 4 11 2 38 7 60 11 42 8 54 8 95 2 14 -2 34 1 44 6 15 8 18 6 13 -7 -9 -23 16 -20 39 5 15 17 16 23 5 40 -9 15 -9 24 -1 34 6 7 8 19 5 27 -3 8 -1 27 4 41 6 15 7 27 3 27 -5 0 -7 37 -5 83 3 45 5 89 5 97 0 8 5 21 11 28 5 6 6 12 2 12 -10 0 48 46 65 52 18 6 59 -22 60 -39z m3406 -9 c10 -8 13 -13 7 -9 -7 3 -13 1 -13 -4 0 -6 -5 -11 -11 -11 -5 0 -7 5 -4 10 3 6 -1 10 -10 10 -9 0 -13 5 -10 10 9 14 18 13 41 -6z m-494 -3 c17 -3 70 -94 65 -112 -3 -10 -1 -17 3 -14 14 9 41 -37 30 -50 -7 -8 -2 -19 15 -33 14 -12 25 -30 25 -40 0 -22 32 -50 50 -44 13 5 13 3 2 -11 -12 -14 -10 -17 12 -23 23 -5 24 -8 11 -18 -13 -9 -11 -11 12 -13 15 0 29 -6 31 -12 2 -6 8 -11 14 -11 15 0 38 -27 30 -35 -4 -5 -1 -5 6 -1 7 4 19 2 27 -4 11 -10 15 -10 15 -1 0 7 4 10 9 7 5 -3 13 0 18 7 15 19 42 127 32 127 -5 0 -9 5 -9 11 0 5 4 8 9 5 7 -5 8 51 0 129 -2 25 11 65 21 65 4 0 10 9 13 19 10 38 97 27 97 -12 0 -11 3 -18 6 -14 8 7 34 -17 34 -32 0 -6 -5 -11 -12 -11 -6 0 -8 -3 -5 -7 4 -3 2 -12 -4 -20 -9 -10 -8 -13 1 -13 8 0 10 -7 5 -17 -14 -35 -15 -64 -5 -83 8 -15 8 -20 -3 -20 -8 0 -14 -6 -14 -12 -1 -7 -2 -31 -4 -53 -1 -22 1 -51 5 -64 5 -13 4 -21 -1 -18 -11 7 -10 -34 1 -52 5 -8 3 -17 -5 -22 -11 -7 -11 -9 -1 -9 7 0 11 -4 8 -9 -3 -4 -1 -23 4 -40 7 -26 5 -36 -11 -52 -11 -11 -17 -25 -13 -30 4 -6 0 -15 -7 -20 -10 -6 -10 -9 -2 -9 7 0 12 -11 11 -25 -1 -14 -6 -25 -11 -25 -5 0 -6 -7 -3 -15 3 -9 -1 -18 -9 -21 -8 -3 -11 -12 -8 -21 4 -9 -1 -21 -11 -29 -10 -6 -18 -25 -18 -42 -1 -20 -6 -29 -16 -28 -10 1 -16 -8 -17 -24 -1 -14 -6 -36 -12 -50 -12 -29 -61 -80 -76 -80 -6 0 -8 -3 -4 -6 10 -10 -57 -72 -85 -79 -16 -4 -25 -11 -22 -16 3 -5 3 -9 0 -9 -2 0 -12 -3 -22 -7 -13 -5 -15 -3 -10 8 4 8 0 5 -8 -5 -9 -11 -16 -16 -16 -10 0 5 -4 3 -9 -5 -5 -7 -24 -15 -42 -16 -19 -2 -46 -6 -62 -9 -17 -3 -25 -1 -21 5 4 7 -3 10 -17 9 -13 -1 -27 -1 -31 0 -5 1 -14 3 -20 4 -7 1 -13 11 -12 24 0 12 -5 22 -12 22 -14 0 -14 32 1 42 5 4 0 15 -14 27 l-23 20 31 15 c19 10 32 12 36 6 3 -6 17 -10 31 -10 13 0 24 -4 24 -8 0 -10 96 -9 106 1 4 4 16 7 26 7 10 0 18 6 18 14 0 8 11 17 25 20 14 4 25 11 25 16 0 5 16 24 35 43 19 19 32 37 28 41 -4 4 -2 10 4 14 6 4 17 30 25 57 8 28 19 49 25 48 6 -1 9 6 6 17 -3 11 0 20 6 20 6 0 11 5 11 11 0 5 -6 7 -12 3 -7 -4 -3 3 9 14 18 18 20 27 13 58 -5 21 -6 42 -3 48 4 5 -1 7 -10 3 -11 -4 -14 -2 -11 8 4 9 -10 22 -43 38 -77 38 -118 61 -121 70 -2 4 -8 5 -13 1 -5 -3 -9 0 -9 5 0 6 -6 11 -13 11 -7 0 -19 9 -27 19 -7 11 -17 18 -22 15 -4 -3 -8 0 -8 6 0 6 -4 9 -9 6 -5 -3 -11 1 -15 9 -3 8 -12 15 -21 15 -8 0 -14 4 -12 8 1 5 -8 21 -20 38 -49 63 -72 105 -67 119 4 9 0 15 -8 15 -10 0 -13 12 -11 42 1 23 -3 49 -10 57 -7 8 -12 21 -12 30 0 9 -4 21 -8 28 -4 6 -3 23 2 36 9 24 32 29 83 18z m-1752 -266 c10 -12 10 -15 -2 -15 -8 0 -15 7 -15 15 0 8 1 15 2 15 2 0 8 -7 15 -15z m955 -195 c3 -6 -1 -7 -9 -4 -18 7 -21 14 -7 14 6 0 13 -4 16 -10z m-3708 -432 c-3 -8 -6 -5 -6 6 -1 11 2 17 5 13 3 -3 4 -12 1 -19z m-1062 -8 c3 -5 1 -10 -4 -10 -6 0 -11 5 -11 10 0 6 2 10 4 10 3 0 8 -4 11 -10z m3752 -167 c-3 -10 -5 -4 -5 12 0 17 2 24 5 18 2 -7 2 -21 0 -30z m-870 -105 c-3 -8 -6 -5 -6 6 -1 11 2 17 5 13 3 -3 4 -12 1 -19z m-4100 -106 c-2 -15 -4 -2 -4 28 0 30 2 43 4 27 2 -15 2 -39 0 -55z m2940 16 c-3 -7 -5 -2 -5 12 0 14 2 19 5 13 2 -7 2 -19 0 -25z m-1182 2 c3 -5 1 -10 -4 -10 -6 0 -11 5 -11 10 0 6 2 10 4 10 3 0 8 -4 11 -10z"></path> <path d="M4920 3810 c0 -5 5 -10 11 -10 5 0 7 5 4 10 -3 6 -8 10 -11 10 -2 0 -4 -4 -4 -10z"></path> <path d="M3250 3004 c0 -8 -4 -12 -10 -9 -5 3 -10 -1 -10 -10 0 -10 5 -13 12 -9 8 5 9 2 5 -9 -3 -9 -2 -19 3 -22 6 -4 10 11 10 34 0 23 -2 41 -5 41 -3 0 -5 -7 -5 -16z"></path> <path d="M3615 2850 c-3 -5 1 -10 10 -10 9 0 13 5 10 10 -3 6 -8 10 -10 10 -2 0 -7 -4 -10 -10z"></path> <path d="M3232 1991 c-11 -7 -11 -9 2 -14 10 -4 16 -1 16 8 0 17 -1 17 -18 6z"></path> <path d="M7125 2090 c-3 -5 -2 -10 4 -10 5 0 13 5 16 10 3 6 2 10 -4 10 -5 0 -13 -4 -16 -10z"></path> <path d="M6720 1409 c0 -7 -12 -8 -32 -5 -28 5 -29 4 -10 -4 12 -5 26 -10 30 -11 4 0 12 -5 18 -10 8 -6 10 -2 6 16 -4 25 -12 34 -12 14z"></path> <path d="M6061 956 c-14 -17 -1 -28 19 -16 11 7 12 12 4 20 -8 8 -14 7 -23 -4z"></path> <path d="M3945 1210 c-3 -5 -1 -10 4 -10 6 0 11 5 11 10 0 6 -2 10 -4 10 -3 0 -8 -4 -11 -10z"></path> </g> </svg> 