<?xml version="1.0" encoding="UTF-8" standalone="no"?> <svg xmlns:inkscape="http://www.inkscape.org/namespaces/inkscape" xmlns:sodipodi="http://sodipodi.sourceforge.net/DTD/sodipodi-0.dtd" xmlns="http://www.w3.org/2000/svg" xmlns:svg="http://www.w3.org/2000/svg" width="248.28593mm" height="159.33868mm" viewBox="0 0 248.28593 159.33868" version="1.1" id="svg1" xml:space="preserve" inkscape:export-filename="../Desktop/asociace-logo.svg" inkscape:export-xdpi="98.209343" inkscape:export-ydpi="98.209343" inkscape:version="1.3 (0e150ed, 2023-07-21)" sodipodi:docname="asociace-logo.svg"><defs id="defs1"></defs><g inkscape:label="Layer 1" inkscape:groupmode="layer" id="layer1" transform="translate(-5.383184,-6.331372)"><g id="text5" style="font-size:31.75px;font-family:'Helvetica Neue';-inkscape-font-specification:'Helvetica Neue';text-align:center;text-anchor:middle;fill:#c12f7c;stroke:#000000;stroke-width:0" aria-label="Asociace pro&#10;Evropskou&#10;Integraci"><path style="font-weight:bold;-inkscape-font-specification:'Helvetica Neue Bold';text-align:start;text-anchor:start;fill:#002e6e" d="m 64.090206,71.290925 2.95275,-8.3185 h 0.0635 l 2.8575,8.3185 z m 0.47625,-13.9065 -8.5725,22.6695 h 5.0165 l 1.778,-5.04825 h 8.47725 l 1.7145,5.04825 h 5.17525 l -8.47725,-22.6695 z m 18.573733,17.3355 h -4.28625 q 0.0635,1.651 0.73025,2.76225 0.6985,1.0795 1.74625,1.74625 1.0795,0.66675 2.44475,0.9525 1.36525,0.28575 2.794,0.28575 1.397,0 2.7305,-0.28575 1.36525,-0.254 2.413,-0.92075 1.04775,-0.66675 1.68275,-1.74625 0.66675,-1.11125 0.66675,-2.7305 0,-1.143 -0.4445,-1.905 -0.4445,-0.79375 -1.17475,-1.30175 -0.73025,-0.53975 -1.68275,-0.85725 -0.92075,-0.3175 -1.905,-0.53975 -0.9525,-0.22225 -1.87325,-0.41275 -0.92075,-0.1905 -1.651,-0.41275 -0.6985,-0.254 -1.143,-0.635 -0.4445,-0.381 -0.4445,-0.98425 0,-0.508 0.254,-0.79375 0.254,-0.3175 0.60325,-0.47625 0.381,-0.15875 0.8255,-0.1905 0.4445,-0.0635 0.8255,-0.0635 1.2065,0 2.0955,0.47625 0.889,0.4445 0.98425,1.74625 h 4.28625 q -0.127,-1.524 -0.79375,-2.50825 -0.635,-1.016 -1.61925,-1.61925 -0.98425,-0.60325 -2.25425,-0.85725 -1.23825,-0.254 -2.57175,-0.254 -1.3335,0 -2.6035,0.254 -1.27,0.22225 -2.286,0.8255 -1.016,0.5715 -1.651,1.5875 -0.60325,1.016 -0.60325,2.6035 0,1.0795 0.4445,1.8415 0.4445,0.73025 1.17475,1.23825 0.73025,0.47625 1.651,0.79375 0.9525,0.28575 1.93675,0.508 2.413,0.508 3.7465,1.016 1.36525,0.508 1.36525,1.524 0,0.60325 -0.28575,1.016 -0.28575,0.381 -0.73025,0.635 -0.41275,0.22225 -0.9525,0.34925 -0.508,0.09525 -0.98425,0.09525 -0.66675,0 -1.30175,-0.15875 -0.60325,-0.15875 -1.0795,-0.47625 -0.47625,-0.34925 -0.79375,-0.85725 -0.28575,-0.53975 -0.28575,-1.27 z m 17.557711,-2.8575 q 0,-0.98425 0.1905,-1.93675 0.1905,-0.9525 0.635,-1.68275 0.47625,-0.73025 1.23825,-1.17475 0.762,-0.47625 1.905,-0.47625 1.143,0 1.905,0.47625 0.79375,0.4445 1.23825,1.17475 0.47625,0.73025 0.66675,1.68275 0.1905,0.9525 0.1905,1.93675 0,0.98425 -0.1905,1.93675 -0.1905,0.92075 -0.66675,1.68275 -0.4445,0.73025 -1.23825,1.17475 -0.762,0.4445 -1.905,0.4445 -1.143,0 -1.905,-0.4445 -0.762,-0.4445 -1.23825,-1.17475 -0.4445,-0.762 -0.635,-1.68275 -0.1905,-0.9525 -0.1905,-1.93675 z m -4.508501,0 q 0,1.9685 0.60325,3.556 0.60325,1.5875 1.7145,2.7305 1.11125,1.11125 2.667001,1.7145 1.55575,0.60325 3.4925,0.60325 1.93675,0 3.4925,-0.60325 1.5875,-0.60325 2.69875,-1.7145 1.11125,-1.143 1.7145,-2.7305 0.60325,-1.5875 0.60325,-3.556 0,-1.9685 -0.60325,-3.556 -0.60325,-1.61925 -1.7145,-2.7305 -1.11125,-1.143 -2.69875,-1.74625 -1.55575,-0.635 -3.4925,-0.635 -1.93675,0 -3.4925,0.635 -1.555751,0.60325 -2.667001,1.74625 -1.11125,1.11125 -1.7145,2.7305 -0.60325,1.5875 -0.60325,3.556 z m 31.083191,-2.44475 h 4.41325 q -0.0953,-1.5875 -0.762,-2.7305 -0.66675,-1.17475 -1.74625,-1.93675 -1.04775,-0.79375 -2.413,-1.17475 -1.3335,-0.381 -2.794,-0.381 -2.00025,0 -3.556,0.66675 -1.55575,0.66675 -2.63525,1.87325 -1.0795,1.17475 -1.651,2.82575 -0.53975,1.61925 -0.53975,3.52425 0,1.8415 0.60325,3.39725 0.60325,1.524 1.68275,2.63525 1.0795,1.11125 2.6035,1.74625 1.55575,0.60325 3.39725,0.60325 3.27025,0 5.36575,-1.7145 2.0955,-1.7145 2.54,-4.98475 h -4.34975 q -0.22225,1.524 -1.11125,2.44475 -0.85725,0.889 -2.4765,0.889 -1.04775,0 -1.778,-0.47625 -0.73025,-0.47625 -1.17475,-1.2065 -0.41275,-0.762 -0.60325,-1.68275 -0.1905,-0.92075 -0.1905,-1.80975 0,-0.92075 0.1905,-1.8415 0.1905,-0.9525 0.635,-1.7145 0.47625,-0.79375 1.2065,-1.27 0.73025,-0.508 1.80975,-0.508 2.88925,0 3.33375,2.82575 z m 11.68399,-8.3185 v -3.71475 h -4.5085 v 3.71475 z m -4.5085,2.54 v 16.41475 h 4.5085 v -16.41475 z m 7.87397,5.04825 q 0.0953,-1.5875 0.79375,-2.63525 0.6985,-1.04775 1.778,-1.68275 1.0795,-0.635 2.413,-0.889 1.36525,-0.28575 2.7305,-0.28575 1.23825,0 2.50825,0.1905 1.27,0.15875 2.31775,0.66675 1.04775,0.508 1.7145,1.42875 0.66675,0.889 0.66675,2.38125 v 8.54075 q 0,1.11125 0.127,2.12725 0.127,1.016 0.4445,1.524 h -4.572 q -0.127,-0.381 -0.22225,-0.762 -0.0635,-0.41275 -0.0953,-0.8255 -1.0795,1.11125 -2.54,1.55575 -1.4605,0.4445 -2.9845,0.4445 -1.17475,0 -2.19075,-0.28575 -1.016,-0.28575 -1.778,-0.889 -0.762,-0.60325 -1.2065,-1.524 -0.41275,-0.92075 -0.41275,-2.19075 0,-1.397 0.47625,-2.286 0.508,-0.92075 1.27,-1.4605 0.79375,-0.53975 1.778,-0.79375 1.016,-0.28575 2.032,-0.4445 1.016,-0.15875 2.00025,-0.254 0.98425,-0.09525 1.74625,-0.28575 0.762,-0.1905 1.2065,-0.53975 0.4445,-0.381 0.41275,-1.0795 0,-0.73025 -0.254,-1.143 -0.22225,-0.4445 -0.635,-0.66675 -0.381,-0.254 -0.92075,-0.3175 -0.508,-0.09525 -1.11125,-0.09525 -1.3335,0 -2.0955,0.5715 -0.762,0.5715 -0.889,1.905 z m 10.414,3.33375 q -0.28575,0.254 -0.73025,0.41275 -0.41275,0.127 -0.92075,0.22225 -0.47625,0.09525 -1.016,0.15875 -0.53975,0.0635 -1.0795,0.15875 -0.508,0.09525 -1.016,0.254 -0.47625,0.15875 -0.85725,0.4445 -0.34925,0.254 -0.5715,0.66675 -0.22225,0.41275 -0.22225,1.04775 0,0.60325 0.22225,1.016 0.22225,0.41275 0.60325,0.66675 0.381,0.22225 0.889,0.3175 0.508,0.09525 1.04775,0.09525 1.3335,0 2.06375,-0.4445 0.73025,-0.4445 1.0795,-1.04775 0.34925,-0.635 0.41275,-1.27 0.0952,-0.635 0.0952,-1.016 z m 19.17699,-2.6035 h 4.41325 q -0.0952,-1.5875 -0.762,-2.7305 -0.66675,-1.17475 -1.74625,-1.93675 -1.04775,-0.79375 -2.413,-1.17475 -1.3335,-0.381 -2.794,-0.381 -2.00025,0 -3.556,0.66675 -1.55575,0.66675 -2.63525,1.87325 -1.0795,1.17475 -1.651,2.82575 -0.53975,1.61925 -0.53975,3.52425 0,1.8415 0.60325,3.39725 0.60325,1.524 1.68275,2.63525 1.0795,1.11125 2.6035,1.74625 1.55575,0.60325 3.39725,0.60325 3.27025,0 5.36575,-1.7145 2.0955,-1.7145 2.54,-4.98475 h -4.34975 q -0.22225,1.524 -1.11125,2.44475 -0.85725,0.889 -2.4765,0.889 -1.04775,0 -1.778,-0.47625 -0.73025,-0.47625 -1.17475,-1.2065 -0.41275,-0.762 -0.60325,-1.68275 -0.1905,-0.92075 -0.1905,-1.80975 0,-0.92075 0.1905,-1.8415 0.1905,-0.9525 0.635,-1.7145 0.47625,-0.79375 1.2065,-1.27 0.73025,-0.508 1.80975,-0.508 2.88925,0 3.33375,2.82575 z m 18.09748,0.66675 h -7.33425 q 0.0318,-0.47625 0.1905,-1.0795 0.1905,-0.60325 0.60325,-1.143 0.4445,-0.53975 1.143,-0.889 0.73025,-0.381 1.80975,-0.381 1.651,0 2.44475,0.889 0.8255,0.889 1.143,2.6035 z m -7.33425,2.8575 h 11.84275 q 0.127,-1.905 -0.3175,-3.65125 -0.4445,-1.74625 -1.4605,-3.1115 -0.98425,-1.36525 -2.54,-2.159 -1.55575,-0.8255 -3.65125,-0.8255 -1.87325,0 -3.429,0.66675 -1.524,0.66675 -2.63525,1.8415 -1.11125,1.143 -1.7145,2.7305 -0.60325,1.5875 -0.60325,3.429 0,1.905 0.5715,3.4925 0.60325,1.5875 1.68275,2.7305 1.0795,1.143 2.63525,1.778 1.55575,0.60325 3.4925,0.60325 2.794,0 4.7625,-1.27 1.9685,-1.27 2.921,-4.22275 h -3.96875 q -0.22225,0.762 -1.2065,1.4605 -0.98425,0.66675 -2.3495,0.66675 -1.905,0 -2.921,-0.98425 -1.016,-0.98425 -1.11125,-3.175 z m 31.62298,4.15925 q -1.0795,0 -1.8415,-0.4445 -0.762,-0.4445 -1.23825,-1.143 -0.4445,-0.73025 -0.66675,-1.68275 -0.1905,-0.9525 -0.1905,-1.93675 0,-1.016 0.1905,-1.9685 0.1905,-0.9525 0.635,-1.68275 0.47625,-0.73025 1.2065,-1.17475 0.762,-0.47625 1.87325,-0.47625 1.0795,0 1.80975,0.47625 0.762,0.4445 1.23825,1.2065 0.47625,0.73025 0.66675,1.68275 0.22225,0.9525 0.22225,1.93675 0,0.98425 -0.1905,1.93675 -0.1905,0.9525 -0.66675,1.68275 -0.4445,0.6985 -1.2065,1.143 -0.73025,0.4445 -1.8415,0.4445 z m -8.28675,-13.462 v 22.1615 h 4.5085 v -7.77875 h 0.0635 q 0.8255,1.2065 2.0955,1.8415 1.30175,0.60325 2.82575,0.60325 1.80975,0 3.14325,-0.6985 1.36525,-0.6985 2.25425,-1.87325 0.92075,-1.17475 1.36525,-2.69875 0.4445,-1.524 0.4445,-3.175 0,-1.74625 -0.4445,-3.33375 -0.4445,-1.61925 -1.36525,-2.82575 -0.92075,-1.2065 -2.31775,-1.93675 -1.397,-0.73025 -3.33375,-0.73025 -1.524,0 -2.794,0.60325 -1.27,0.60325 -2.0955,1.93675 h -0.0635 v -2.0955 z m 19.39918,0 v 16.41475 h 4.5085 v -7.39775 q 0,-1.11125 0.22225,-2.06375 0.22225,-0.9525 0.73025,-1.651 0.53975,-0.73025 1.397,-1.143 0.85725,-0.41275 2.0955,-0.41275 0.41275,0 0.85725,0.0635 0.4445,0.03175 0.762,0.09525 v -4.191 q -0.53975,-0.15875 -0.98425,-0.15875 -0.85725,0 -1.651,0.254 -0.79375,0.254 -1.49225,0.73025 -0.6985,0.4445 -1.23825,1.11125 -0.53975,0.635 -0.85725,1.397 h -0.0635 v -3.048 z m 15.77969,8.22325 q 0,-0.98425 0.1905,-1.93675 0.1905,-0.9525 0.635,-1.68275 0.47625,-0.73025 1.23825,-1.17475 0.762,-0.47625 1.905,-0.47625 1.143,0 1.905,0.47625 0.79375,0.4445 1.23825,1.17475 0.47625,0.73025 0.66675,1.68275 0.1905,0.9525 0.1905,1.93675 0,0.98425 -0.1905,1.93675 -0.1905,0.92075 -0.66675,1.68275 -0.4445,0.73025 -1.23825,1.17475 -0.762,0.4445 -1.905,0.4445 -1.143,0 -1.905,-0.4445 -0.762,-0.4445 -1.23825,-1.17475 -0.4445,-0.762 -0.635,-1.68275 -0.1905,-0.9525 -0.1905,-1.93675 z m -4.5085,0 q 0,1.9685 0.60325,3.556 0.60325,1.5875 1.7145,2.7305 1.11125,1.11125 2.667,1.7145 1.55575,0.60325 3.4925,0.60325 1.93675,0 3.4925,-0.60325 1.5875,-0.60325 2.69875,-1.7145 1.11125,-1.143 1.7145,-2.7305 0.60325,-1.5875 0.60325,-3.556 0,-1.9685 -0.60325,-3.556 -0.60325,-1.61925 -1.7145,-2.7305 -1.11125,-1.143 -2.69875,-1.74625 -1.55575,-0.635 -3.4925,-0.635 -1.93675,0 -3.4925,0.635 -1.55575,0.60325 -2.667,1.74625 -1.11125,1.11125 -1.7145,2.7305 -0.60325,1.5875 -0.60325,3.556 z" id="path7"></path><path style="font-weight:bold;-inkscape-font-specification:'Helvetica Neue Bold';text-align:start;text-anchor:start;fill:#002e6e" d="m 58.375206,97.096869 v 22.669501 h 17.2085 v -4.191 h -12.22375 v -5.55625 h 10.9855 v -3.8735 h -10.9855 v -4.85775 h 11.96975 v -4.191001 z m 29.178213,22.669501 5.55625,-16.41475 h -4.47675 l -3.46075,11.20775 h -0.0635 l -3.46075,-11.20775 h -4.73075 l 5.61975,16.41475 z m 7.429453,-16.41475 v 16.41475 h 4.5085 v -7.39775 q 0,-1.11125 0.22225,-2.06375 0.22225,-0.9525 0.730248,-1.651 0.53975,-0.73025 1.397,-1.143 0.85725,-0.41275 2.0955,-0.41275 0.41275,0 0.85725,0.0635 0.4445,0.0318 0.762,0.0953 v -4.191 q -0.53975,-0.15875 -0.98425,-0.15875 -0.85725,0 -1.651,0.254 -0.79375,0.254 -1.49225,0.73025 -0.6985,0.4445 -1.23825,1.11125 -0.539748,0.635 -0.857248,1.397 h -0.0635 v -3.048 z m 15.779698,8.22325 q 0,-0.98425 0.1905,-1.93675 0.1905,-0.9525 0.635,-1.68275 0.47625,-0.73025 1.23825,-1.17475 0.762,-0.47625 1.905,-0.47625 1.143,0 1.905,0.47625 0.79375,0.4445 1.23825,1.17475 0.47625,0.73025 0.66675,1.68275 0.1905,0.9525 0.1905,1.93675 0,0.98425 -0.1905,1.93675 -0.1905,0.92075 -0.66675,1.68275 -0.4445,0.73025 -1.23825,1.17475 -0.762,0.4445 -1.905,0.4445 -1.143,0 -1.905,-0.4445 -0.762,-0.4445 -1.23825,-1.17475 -0.4445,-0.762 -0.635,-1.68275 -0.1905,-0.9525 -0.1905,-1.93675 z m -4.5085,0 q 0,1.9685 0.60325,3.556 0.60325,1.5875 1.7145,2.7305 1.11125,1.11125 2.667,1.7145 1.55575,0.60325 3.4925,0.60325 1.93675,0 3.4925,-0.60325 1.5875,-0.60325 2.69875,-1.7145 1.11125,-1.143 1.7145,-2.7305 0.60325,-1.5875 0.60325,-3.556 0,-1.9685 -0.60325,-3.556 -0.60325,-1.61925 -1.7145,-2.7305 -1.11125,-1.143 -2.69875,-1.74625 -1.55575,-0.635 -3.4925,-0.635 -1.93675,0 -3.4925,0.635 -1.55575,0.60325 -2.667,1.74625 -1.11125,1.11125 -1.7145,2.7305 -0.60325,1.5875 -0.60325,3.556 z m 28.19394,5.23875 q -1.0795,0 -1.8415,-0.4445 -0.762,-0.4445 -1.23825,-1.143 -0.4445,-0.73025 -0.66675,-1.68275 -0.1905,-0.9525 -0.1905,-1.93675 0,-1.016 0.1905,-1.9685 0.1905,-0.9525 0.635,-1.68275 0.47625,-0.73025 1.2065,-1.17475 0.762,-0.47625 1.87325,-0.47625 1.0795,0 1.80975,0.47625 0.762,0.4445 1.23825,1.2065 0.47625,0.73025 0.66675,1.68275 0.22225,0.9525 0.22225,1.93675 0,0.98425 -0.1905,1.93675 -0.1905,0.9525 -0.66675,1.68275 -0.4445,0.6985 -1.2065,1.143 -0.73025,0.4445 -1.8415,0.4445 z m -8.28675,-13.462 v 22.1615 h 4.5085 v -7.77875 h 0.0635 q 0.8255,1.2065 2.0955,1.8415 1.30175,0.60325 2.82575,0.60325 1.80975,0 3.14325,-0.6985 1.36525,-0.6985 2.25425,-1.87325 0.92075,-1.17475 1.36525,-2.69875 0.4445,-1.524 0.4445,-3.175 0,-1.74625 -0.4445,-3.33375 -0.4445,-1.61925 -1.36525,-2.82575 -0.92075,-1.2065 -2.31775,-1.93675 -1.397,-0.73025 -3.33375,-0.73025 -1.524,0 -2.794,0.60325 -1.27,0.60325 -2.0955,1.93675 h -0.0635 v -2.0955 z m 22.89169,11.08075 h -4.28625 q 0.0635,1.651 0.73025,2.76225 0.6985,1.0795 1.74625,1.74625 1.0795,0.66675 2.44475,0.9525 1.36525,0.28575 2.794,0.28575 1.397,0 2.7305,-0.28575 1.36525,-0.254 2.413,-0.92075 1.04775,-0.66675 1.68275,-1.74625 0.66675,-1.11125 0.66675,-2.7305 0,-1.143 -0.4445,-1.905 -0.4445,-0.79375 -1.17475,-1.30175 -0.73025,-0.53975 -1.68275,-0.85725 -0.92075,-0.3175 -1.905,-0.53975 -0.9525,-0.22225 -1.87325,-0.41275 -0.92075,-0.1905 -1.651,-0.41275 -0.6985,-0.254 -1.143,-0.635 -0.4445,-0.381 -0.4445,-0.98425 0,-0.508 0.254,-0.79375 0.254,-0.3175 0.60325,-0.47625 0.381,-0.15875 0.8255,-0.1905 0.4445,-0.0635 0.8255,-0.0635 1.2065,0 2.0955,0.47625 0.889,0.4445 0.98425,1.74625 h 4.28625 q -0.127,-1.524 -0.79375,-2.50825 -0.635,-1.016 -1.61925,-1.61925 -0.98425,-0.60325 -2.25425,-0.85725 -1.23825,-0.254 -2.57175,-0.254 -1.3335,0 -2.6035,0.254 -1.27,0.22225 -2.286,0.8255 -1.016,0.5715 -1.651,1.5875 -0.60325,1.016 -0.60325,2.6035 0,1.0795 0.4445,1.8415 0.4445,0.73025 1.17475,1.23825 0.73025,0.47625 1.651,0.79375 0.9525,0.28575 1.93675,0.508 2.413,0.508 3.7465,1.016 1.36525,0.508 1.36525,1.524 0,0.60325 -0.28575,1.016 -0.28575,0.381 -0.73025,0.635 -0.41275,0.22225 -0.9525,0.34925 -0.508,0.0953 -0.98425,0.0953 -0.66675,0 -1.30175,-0.15875 -0.60325,-0.15875 -1.0795,-0.47625 -0.47625,-0.34925 -0.79375,-0.85725 -0.28575,-0.53975 -0.28575,-1.27 z m 13.96997,-17.335501 v 22.669501 h 4.5085 v -5.6515 l 1.74625,-1.68275 4.5085,7.33425 h 5.461 l -6.88975,-10.38225 6.19125,-6.0325 h -5.334 l -5.68325,5.9055 V 97.096869 Z m 21.81223,14.478001 q 0,-0.98425 0.1905,-1.93675 0.1905,-0.9525 0.635,-1.68275 0.47625,-0.73025 1.23825,-1.17475 0.762,-0.47625 1.905,-0.47625 1.143,0 1.905,0.47625 0.79375,0.4445 1.23825,1.17475 0.47625,0.73025 0.66675,1.68275 0.1905,0.9525 0.1905,1.93675 0,0.98425 -0.1905,1.93675 -0.1905,0.92075 -0.66675,1.68275 -0.4445,0.73025 -1.23825,1.17475 -0.762,0.4445 -1.905,0.4445 -1.143,0 -1.905,-0.4445 -0.762,-0.4445 -1.23825,-1.17475 -0.4445,-0.762 -0.635,-1.68275 -0.1905,-0.9525 -0.1905,-1.93675 z m -4.5085,0 q 0,1.9685 0.60325,3.556 0.60325,1.5875 1.7145,2.7305 1.11125,1.11125 2.667,1.7145 1.55575,0.60325 3.4925,0.60325 1.93675,0 3.4925,-0.60325 1.5875,-0.60325 2.69875,-1.7145 1.11125,-1.143 1.7145,-2.7305 0.60325,-1.5875 0.60325,-3.556 0,-1.9685 -0.60325,-3.556 -0.60325,-1.61925 -1.7145,-2.7305 -1.11125,-1.143 -2.69875,-1.74625 -1.55575,-0.635 -3.4925,-0.635 -1.93675,0 -3.4925,0.635 -1.55575,0.60325 -2.667,1.74625 -1.11125,1.11125 -1.7145,2.7305 -0.60325,1.5875 -0.60325,3.556 z m 35.30594,8.1915 v -16.41475 h -4.5085 v 8.60425 q 0,2.50825 -0.8255,3.6195 -0.8255,1.0795 -2.667,1.0795 -1.61925,0 -2.25425,-0.98425 -0.635,-1.016 -0.635,-3.048 v -9.271 h -4.5085 v 10.0965 q 0,1.524 0.254,2.794 0.28575,1.23825 0.9525,2.12725 0.66675,0.85725 1.80975,1.3335 1.17475,0.47625 2.9845,0.47625 1.42875,0 2.794,-0.635 1.36525,-0.635 2.2225,-2.06375 h 0.0952 v 2.286 z" id="path8"></path><path style="font-weight:bold;-inkscape-font-specification:'Helvetica Neue Bold';text-align:start;text-anchor:start;fill:#002e6e" d="m 58.375206,136.80931 v 22.6695 h 4.98475 v -22.6695 z m 8.889942,6.25475 v 16.41475 h 4.5085 v -8.60425 q 0,-2.50825 0.8255,-3.58775 0.8255,-1.11125 2.667,-1.11125 1.61925,0 2.25425,1.016 0.635,0.98425 0.635,3.01625 v 9.271 h 4.5085 v -10.0965 q 0,-1.524 -0.28575,-2.76225 -0.254,-1.27 -0.92075,-2.12725 -0.66675,-0.889 -1.8415,-1.36525 -1.143,-0.508 -2.95275,-0.508 -1.42875,0 -2.794,0.66675 -1.36525,0.635 -2.2225,2.06375 h -0.09525 v -2.286 z m 24.542701,0 v -4.92125 h -4.5085 v 4.92125 h -2.7305 v 3.01625 h 2.7305 v 9.68375 q 0,1.23825 0.41275,2.00025 0.41275,0.762 1.11125,1.17475 0.73025,0.41275 1.651,0.53975 0.9525,0.15875 2.00025,0.15875 0.66675,0 1.36525,-0.0318 0.6985,-0.0317 1.27,-0.127 v -3.4925 q -0.3175,0.0635 -0.66675,0.0952 -0.34925,0.0318 -0.73025,0.0318 -1.143,0 -1.524,-0.381 -0.381,-0.381 -0.381,-1.524 v -8.128 h 3.302 v -3.01625 z m 16.509981,6.44525 h -7.33425 q 0.0318,-0.47625 0.1905,-1.0795 0.1905,-0.60325 0.60325,-1.143 0.4445,-0.53975 1.143,-0.889 0.73025,-0.381 1.80975,-0.381 1.651,0 2.44475,0.889 0.8255,0.889 1.143,2.6035 z m -7.33425,2.8575 h 11.84275 q 0.127,-1.905 -0.3175,-3.65125 -0.4445,-1.74625 -1.4605,-3.1115 -0.98425,-1.36525 -2.54,-2.159 -1.55575,-0.8255 -3.65125,-0.8255 -1.87325,0 -3.429,0.66675 -1.524001,0.66675 -2.635251,1.8415 -1.11125,1.143 -1.7145,2.7305 -0.60325,1.5875 -0.60325,3.429 0,1.905 0.5715,3.4925 0.60325,1.5875 1.68275,2.7305 1.0795,1.143 2.635251,1.778 1.55575,0.60325 3.4925,0.60325 2.794,0 4.7625,-1.27 1.9685,-1.27 2.921,-4.22275 h -3.96875 q -0.22225,0.762 -1.2065,1.4605 -0.98425,0.66675 -2.3495,0.66675 -1.905,0 -2.921,-0.98425 -1.016,-0.98425 -1.11125,-3.175 z m 22.16148,3.2385 q -1.04775,0 -1.74625,-0.4445 -0.6985,-0.4445 -1.143,-1.143 -0.41275,-0.6985 -0.60325,-1.55575 -0.15875,-0.889 -0.15875,-1.778 0,-0.92075 0.1905,-1.74625 0.22225,-0.85725 0.66675,-1.49225 0.47625,-0.66675 1.143,-1.04775 0.6985,-0.381 1.651,-0.381 1.11125,0 1.8415,0.41275 0.73025,0.41275 1.17475,1.11125 0.4445,0.6985 0.635,1.61925 0.1905,0.889 0.1905,1.905 0,0.889 -0.254,1.7145 -0.22225,0.79375 -0.6985,1.42875 -0.47625,0.635 -1.2065,1.016 -0.73025,0.381 -1.68275,0.381 z m 8.128,2.82575 v -15.367 h -4.28625 v 2.19075 h -0.0635 q -0.8255,-1.42875 -2.06375,-2.032 -1.2065,-0.60325 -2.82575,-0.60325 -1.7145,0 -3.048,0.66675 -1.30175,0.66675 -2.19075,1.80975 -0.889,1.11125 -1.36525,2.6035 -0.4445,1.4605 -0.4445,3.048 0,1.68275 0.381,3.20675 0.41275,1.49225 1.27,2.63525 0.85725,1.11125 2.19075,1.778 1.3335,0.635 3.175,0.635 1.49225,0 2.82575,-0.60325 1.36525,-0.635 2.0955,-1.93675 h 0.0635 v 2.159 q 0.0317,1.74625 -0.85725,2.88925 -0.85725,1.143 -2.76225,1.143 -1.2065,0 -2.12725,-0.508 -0.92075,-0.47625 -1.23825,-1.74625 h -4.47675 q 0.0953,1.397 0.762,2.38125 0.6985,1.016 1.7145,1.651 1.04775,0.635 2.286,0.92075 1.27,0.3175 2.4765,0.3175 2.82575,0 4.5085,-0.762 1.68275,-0.762 2.57175,-1.87325 0.889,-1.0795 1.143,-2.3495 0.28575,-1.27 0.28575,-2.25425 z m 3.61944,-15.367 v 16.41475 h 4.5085 v -7.39775 q 0,-1.11125 0.22225,-2.06375 0.22225,-0.9525 0.73025,-1.651 0.53975,-0.73025 1.397,-1.143 0.85725,-0.41275 2.0955,-0.41275 0.41275,0 0.85725,0.0635 0.4445,0.0318 0.762,0.0953 v -4.191 q -0.53975,-0.15875 -0.98425,-0.15875 -0.85725,0 -1.651,0.254 -0.79375,0.254 -1.49225,0.73025 -0.6985,0.4445 -1.23825,1.11125 -0.53975,0.635 -0.85725,1.397 h -0.0635 v -3.048 z m 12.16025,5.04825 q 0.0952,-1.5875 0.79375,-2.63525 0.6985,-1.04775 1.778,-1.68275 1.0795,-0.635 2.413,-0.889 1.36525,-0.28575 2.7305,-0.28575 1.23825,0 2.50825,0.1905 1.27,0.15875 2.31775,0.66675 1.04775,0.508 1.7145,1.42875 0.66675,0.889 0.66675,2.38125 v 8.54075 q 0,1.11125 0.127,2.12725 0.127,1.016 0.4445,1.524 h -4.572 q -0.127,-0.381 -0.22225,-0.762 -0.0635,-0.41275 -0.0952,-0.8255 -1.0795,1.11125 -2.54,1.55575 -1.4605,0.4445 -2.9845,0.4445 -1.17475,0 -2.19075,-0.28575 -1.016,-0.28575 -1.778,-0.889 -0.762,-0.60325 -1.2065,-1.524 -0.41275,-0.92075 -0.41275,-2.19075 0,-1.397 0.47625,-2.286 0.508,-0.92075 1.27,-1.4605 0.79375,-0.53975 1.778,-0.79375 1.016,-0.28575 2.032,-0.4445 1.016,-0.15875 2.00025,-0.254 0.98425,-0.0952 1.74625,-0.28575 0.762,-0.1905 1.2065,-0.53975 0.4445,-0.381 0.41275,-1.0795 0,-0.73025 -0.254,-1.143 -0.22225,-0.4445 -0.635,-0.66675 -0.381,-0.254 -0.92075,-0.3175 -0.508,-0.0953 -1.11125,-0.0953 -1.3335,0 -2.0955,0.5715 -0.762,0.5715 -0.889,1.905 z m 10.414,3.33375 q -0.28575,0.254 -0.73025,0.41275 -0.41275,0.127 -0.92075,0.22225 -0.47625,0.0952 -1.016,0.15875 -0.53975,0.0635 -1.0795,0.15875 -0.508,0.0952 -1.016,0.254 -0.47625,0.15875 -0.85725,0.4445 -0.34925,0.254 -0.5715,0.66675 -0.22225,0.41275 -0.22225,1.04775 0,0.60325 0.22225,1.016 0.22225,0.41275 0.60325,0.66675 0.381,0.22225 0.889,0.3175 0.508,0.0952 1.04775,0.0952 1.3335,0 2.06375,-0.4445 0.73025,-0.4445 1.0795,-1.04775 0.34925,-0.635 0.41275,-1.27 0.0952,-0.635 0.0952,-1.016 z m 19.17698,-2.6035 h 4.41325 q -0.0953,-1.5875 -0.762,-2.7305 -0.66675,-1.17475 -1.74625,-1.93675 -1.04775,-0.79375 -2.413,-1.17475 -1.3335,-0.381 -2.794,-0.381 -2.00025,0 -3.556,0.66675 -1.55575,0.66675 -2.63525,1.87325 -1.0795,1.17475 -1.651,2.82575 -0.53975,1.61925 -0.53975,3.52425 0,1.8415 0.60325,3.39725 0.60325,1.524 1.68275,2.63525 1.0795,1.11125 2.6035,1.74625 1.55575,0.60325 3.39725,0.60325 3.27025,0 5.36575,-1.7145 2.0955,-1.7145 2.54,-4.98475 h -4.34975 q -0.22225,1.524 -1.11125,2.44475 -0.85725,0.889 -2.4765,0.889 -1.04775,0 -1.778,-0.47625 -0.73025,-0.47625 -1.17475,-1.2065 -0.41275,-0.762 -0.60325,-1.68275 -0.1905,-0.92075 -0.1905,-1.80975 0,-0.92075 0.1905,-1.8415 0.1905,-0.9525 0.635,-1.7145 0.47625,-0.79375 1.2065,-1.27 0.73025,-0.508 1.80975,-0.508 2.88925,0 3.33375,2.82575 z m 11.68398,-8.3185 v -3.71475 h -4.5085 v 3.71475 z m -4.5085,2.54 v 16.41475 h 4.5085 v -16.41475 z" id="path9"></path></g><path d="m 158.54267,46.070088 2.17009,-24.361911 12.73803,20.879521 -22.80945,-9.42437 24.17535,-5.647116" id="path1" style="opacity:1;fill:#c1b17c;fill-opacity:1;stroke-width:0.10266"></path><path d="m 121.80967,30.693282 2.17009,-24.3619099 12.73803,20.8795199 -22.80945,-9.42437 24.17535,-5.647116" id="path1-1" style="opacity:1;fill:#c1b17c;fill-opacity:1;stroke-width:0.10266"></path><path d="M 81.793739,32.182741 83.963829,7.8208305 96.701831,28.700351 73.892409,19.275981 98.067722,13.628865" id="path1-5" style="opacity:1;fill:#c1b17c;fill-opacity:1;stroke-width:0.10266"></path><path d="m 46.100178,51.237144 2.17009,-24.361911 12.73803,20.879521 -22.80945,-9.42437 24.17535,-5.647116" id="path1-6" style="opacity:1;fill:#c1b17c;fill-opacity:1;stroke-width:0.10266"></path><path d="m 21.421574,83.203782 2.17009,-24.361913 12.73803,20.879521 -22.80945,-9.42437 24.17535,-5.647116" id="path1-17" style="opacity:1;fill:#c1b17c;fill-opacity:1;stroke-width:0.10266"></path><path d="M 13.284511,122.30049 15.454601,97.938592 28.192631,118.8181 5.3831837,109.39373 29.558531,103.74662" id="path1-8" style="opacity:1;fill:#c1b17c;fill-opacity:1;stroke-width:0.10266"></path><path d="m 21.336342,161.19541 2.17009,-24.36191 12.73803,20.87952 -22.80945,-9.42437 24.17535,-5.64712" id="path1-4" style="opacity:1;fill:#c1b17c;fill-opacity:1;stroke-width:0.10266"></path><g id="g5" transform="translate(-48.906316,-23.096642)" style="opacity:0"><rect style="opacity:1;fill:#c12f7c;fill-opacity:1;stroke:#000000;stroke-width:0;stroke-dasharray:none;stroke-opacity:1" id="rect5" width="92.802612" height="0.26245496" x="-88.251892" y="-188.84671" transform="rotate(155)"></rect><rect style="fill:#c12f7c;fill-opacity:1;stroke:#000000;stroke-width:0;stroke-dasharray:none;stroke-opacity:1" id="rect5-0" width="92.802612" height="0.26245496" x="66.964363" y="133.6553"></rect><rect style="fill:#c12f7c;fill-opacity:1;stroke:#000000;stroke-width:0;stroke-dasharray:none;stroke-opacity:1" id="rect5-7" width="92.802612" height="0.26245496" x="-201.33032" y="-53.891491" transform="rotate(-155)"></rect><rect style="fill:#c12f7c;fill-opacity:1;stroke:#000000;stroke-width:0;stroke-dasharray:none;stroke-opacity:1" id="rect5-9" width="92.802612" height="0.26245496" x="-205.19942" y="36.189701" transform="rotate(-130)"></rect><rect style="fill:#c12f7c;fill-opacity:1;stroke:#000000;stroke-width:0;stroke-dasharray:none;stroke-opacity:1" id="rect5-5" width="92.802612" height="0.26245496" x="-170.60977" y="119.45898" transform="rotate(-105)"></rect><rect style="fill:#c12f7c;fill-opacity:1;stroke:#000000;stroke-width:0;stroke-dasharray:none;stroke-opacity:1" id="rect5-8" width="92.802612" height="0.26245496" x="-104.10976" y="180.30827" transform="rotate(-80)"></rect><rect style="fill:#c12f7c;fill-opacity:1;stroke:#000000;stroke-width:0;stroke-dasharray:none;stroke-opacity:1" id="rect5-4" width="92.802612" height="0.26245496" x="-18.034872" y="207.38785" transform="rotate(-55)"></rect></g></g></svg> 